G04 EAGLE Gerber RS-274X export*
G75*
%MOMM*%
%FSLAX34Y34*%
%LPD*%
%INTop Copper*%
%IPPOS*%
%AMOC8*
5,1,8,0,0,1.08239X$1,22.5*%
G01*
%ADD10R,1.300000X1.500000*%
%ADD11C,2.540000*%
%ADD12C,1.508000*%
%ADD13P,1.429621X8X22.500000*%
%ADD14C,0.152400*%
%ADD15C,0.254000*%

G36*
X559015Y10163D02*
X559015Y10163D01*
X559038Y10162D01*
X564152Y10413D01*
X564185Y10420D01*
X564263Y10427D01*
X574295Y12422D01*
X574318Y12430D01*
X574438Y12465D01*
X583888Y16380D01*
X583909Y16392D01*
X584020Y16450D01*
X592525Y22133D01*
X592542Y22149D01*
X592640Y22227D01*
X599873Y29460D01*
X599886Y29479D01*
X599967Y29575D01*
X605650Y38080D01*
X605660Y38102D01*
X605720Y38212D01*
X609635Y47662D01*
X609640Y47685D01*
X609678Y47805D01*
X611673Y57837D01*
X611675Y57869D01*
X611687Y57948D01*
X611938Y63062D01*
X611937Y63076D01*
X611939Y63099D01*
X611939Y534616D01*
X611934Y534646D01*
X611927Y534751D01*
X611189Y538849D01*
X611178Y538879D01*
X611156Y538973D01*
X608021Y547655D01*
X608021Y547656D01*
X608020Y547657D01*
X607946Y547808D01*
X602958Y555574D01*
X602957Y555576D01*
X602956Y555577D01*
X602850Y555707D01*
X596259Y562169D01*
X596258Y562170D01*
X596257Y562171D01*
X596125Y562274D01*
X588261Y567107D01*
X588260Y567108D01*
X588258Y567109D01*
X588106Y567180D01*
X579364Y570142D01*
X579363Y570142D01*
X579362Y570143D01*
X579198Y570179D01*
X570015Y571121D01*
X569983Y571119D01*
X569887Y571124D01*
X566511Y570901D01*
X566471Y570891D01*
X566430Y570891D01*
X566274Y570846D01*
X566271Y570845D01*
X566270Y570845D01*
X566269Y570844D01*
X566016Y570739D01*
X564662Y570739D01*
X564632Y570734D01*
X564570Y570734D01*
X563226Y570569D01*
X562711Y570712D01*
X562692Y570714D01*
X562675Y570721D01*
X562508Y570739D01*
X229551Y570739D01*
X229480Y570728D01*
X229408Y570726D01*
X229359Y570708D01*
X229308Y570700D01*
X229245Y570666D01*
X229177Y570641D01*
X229137Y570609D01*
X229091Y570584D01*
X229041Y570533D01*
X228985Y570488D01*
X228957Y570444D01*
X228921Y570406D01*
X228891Y570341D01*
X228852Y570281D01*
X228840Y570230D01*
X228818Y570183D01*
X228810Y570112D01*
X228792Y570042D01*
X228796Y569990D01*
X228791Y569939D01*
X228806Y569868D01*
X228811Y569797D01*
X228832Y569749D01*
X228843Y569698D01*
X228880Y569637D01*
X228908Y569571D01*
X228953Y569515D01*
X228969Y569487D01*
X228987Y569472D01*
X229013Y569440D01*
X239948Y558504D01*
X240042Y558437D01*
X240137Y558366D01*
X240143Y558365D01*
X240148Y558361D01*
X240258Y558327D01*
X240370Y558290D01*
X240377Y558290D01*
X240383Y558289D01*
X240500Y558292D01*
X240616Y558293D01*
X240624Y558295D01*
X240629Y558295D01*
X240646Y558301D01*
X240778Y558339D01*
X245571Y560325D01*
X251229Y560325D01*
X256458Y558159D01*
X260459Y554158D01*
X262625Y548929D01*
X262625Y543271D01*
X260459Y538042D01*
X256458Y534041D01*
X251229Y531875D01*
X245571Y531875D01*
X240342Y534041D01*
X236341Y538042D01*
X234175Y543271D01*
X234175Y548929D01*
X236161Y553722D01*
X236187Y553836D01*
X236216Y553950D01*
X236215Y553956D01*
X236217Y553962D01*
X236206Y554079D01*
X236197Y554195D01*
X236194Y554201D01*
X236194Y554207D01*
X236146Y554314D01*
X236100Y554421D01*
X236096Y554427D01*
X236094Y554432D01*
X236081Y554445D01*
X235996Y554552D01*
X224859Y565688D01*
X224785Y565741D01*
X224716Y565801D01*
X224686Y565813D01*
X224660Y565832D01*
X224573Y565859D01*
X224488Y565893D01*
X224447Y565897D01*
X224425Y565904D01*
X224392Y565903D01*
X224321Y565911D01*
X141579Y565911D01*
X141489Y565897D01*
X141398Y565889D01*
X141368Y565877D01*
X141336Y565872D01*
X141256Y565829D01*
X141172Y565793D01*
X141140Y565767D01*
X141119Y565756D01*
X141097Y565733D01*
X141041Y565688D01*
X131777Y556424D01*
X131735Y556366D01*
X131685Y556314D01*
X131663Y556267D01*
X131633Y556225D01*
X131612Y556156D01*
X131582Y556091D01*
X131576Y556039D01*
X131561Y555989D01*
X131563Y555918D01*
X131555Y555847D01*
X131566Y555796D01*
X131567Y555744D01*
X131592Y555676D01*
X131607Y555606D01*
X131634Y555561D01*
X131652Y555513D01*
X131696Y555457D01*
X131733Y555395D01*
X131773Y555361D01*
X131805Y555321D01*
X131866Y555282D01*
X131920Y555235D01*
X131968Y555216D01*
X132012Y555188D01*
X132082Y555170D01*
X132148Y555143D01*
X132220Y555135D01*
X132251Y555127D01*
X132274Y555129D01*
X132315Y555125D01*
X142632Y555125D01*
X143525Y554232D01*
X143525Y541343D01*
X143539Y541253D01*
X143547Y541162D01*
X143559Y541132D01*
X143564Y541100D01*
X143607Y541020D01*
X143643Y540936D01*
X143669Y540904D01*
X143680Y540883D01*
X143703Y540861D01*
X143748Y540805D01*
X163375Y521178D01*
X163449Y521125D01*
X163518Y521065D01*
X163548Y521053D01*
X163574Y521034D01*
X163661Y521007D01*
X163746Y520973D01*
X163787Y520969D01*
X163809Y520962D01*
X163842Y520963D01*
X163913Y520955D01*
X472774Y520955D01*
X472794Y520958D01*
X472813Y520956D01*
X472915Y520978D01*
X473017Y520994D01*
X473034Y521004D01*
X473054Y521008D01*
X473143Y521061D01*
X473234Y521110D01*
X473248Y521124D01*
X473265Y521134D01*
X473332Y521213D01*
X473404Y521288D01*
X473412Y521306D01*
X473425Y521321D01*
X473464Y521417D01*
X473507Y521511D01*
X473509Y521531D01*
X473517Y521549D01*
X473535Y521716D01*
X473535Y522503D01*
X474915Y525835D01*
X477465Y528385D01*
X480797Y529765D01*
X484403Y529765D01*
X487735Y528385D01*
X490285Y525835D01*
X491665Y522503D01*
X491665Y518897D01*
X490285Y515565D01*
X487735Y513015D01*
X484403Y511635D01*
X480797Y511635D01*
X477465Y513015D01*
X475338Y515142D01*
X475264Y515195D01*
X475195Y515255D01*
X475165Y515267D01*
X475138Y515286D01*
X475052Y515313D01*
X474967Y515347D01*
X474926Y515351D01*
X474903Y515358D01*
X474871Y515357D01*
X474800Y515365D01*
X161282Y515365D01*
X139795Y536852D01*
X139721Y536905D01*
X139652Y536965D01*
X139622Y536977D01*
X139596Y536996D01*
X139509Y537023D01*
X139424Y537057D01*
X139383Y537061D01*
X139361Y537068D01*
X139328Y537067D01*
X139257Y537075D01*
X139056Y537075D01*
X139036Y537072D01*
X139017Y537074D01*
X138915Y537052D01*
X138813Y537036D01*
X138796Y537026D01*
X138776Y537022D01*
X138687Y536969D01*
X138596Y536920D01*
X138582Y536906D01*
X138565Y536896D01*
X138498Y536817D01*
X138426Y536742D01*
X138418Y536724D01*
X138405Y536709D01*
X138366Y536613D01*
X138323Y536519D01*
X138321Y536499D01*
X138313Y536481D01*
X138295Y536314D01*
X138295Y523992D01*
X100032Y485729D01*
X99978Y485655D01*
X99919Y485586D01*
X99907Y485556D01*
X99888Y485529D01*
X99861Y485443D01*
X99849Y485413D01*
X99837Y485386D01*
X99836Y485380D01*
X99827Y485358D01*
X99823Y485317D01*
X99816Y485294D01*
X99817Y485262D01*
X99809Y485191D01*
X99809Y452766D01*
X99823Y452676D01*
X99830Y452585D01*
X99843Y452555D01*
X99848Y452523D01*
X99891Y452443D01*
X99927Y452359D01*
X99952Y452327D01*
X99963Y452306D01*
X99987Y452284D01*
X100032Y452228D01*
X114152Y438108D01*
X114168Y438096D01*
X114180Y438080D01*
X114268Y438024D01*
X114351Y437964D01*
X114370Y437958D01*
X114387Y437947D01*
X114488Y437922D01*
X114587Y437892D01*
X114606Y437892D01*
X114626Y437887D01*
X114729Y437895D01*
X114832Y437898D01*
X114851Y437905D01*
X114871Y437906D01*
X114966Y437947D01*
X115063Y437982D01*
X115079Y437995D01*
X115097Y438003D01*
X115228Y438108D01*
X123996Y446876D01*
X124038Y446934D01*
X124088Y446986D01*
X124110Y447033D01*
X124140Y447075D01*
X124161Y447144D01*
X124191Y447209D01*
X124197Y447261D01*
X124212Y447311D01*
X124211Y447382D01*
X124218Y447453D01*
X124207Y447504D01*
X124206Y447556D01*
X124181Y447624D01*
X124166Y447694D01*
X124139Y447739D01*
X124122Y447787D01*
X124077Y447843D01*
X124040Y447905D01*
X124000Y447939D01*
X123968Y447979D01*
X123908Y448018D01*
X123853Y448065D01*
X123805Y448084D01*
X123761Y448112D01*
X123691Y448130D01*
X123625Y448157D01*
X123554Y448165D01*
X123522Y448173D01*
X123499Y448171D01*
X123458Y448175D01*
X111368Y448175D01*
X110475Y449068D01*
X110475Y465332D01*
X111368Y466225D01*
X122257Y466225D01*
X122347Y466239D01*
X122438Y466247D01*
X122468Y466259D01*
X122500Y466264D01*
X122580Y466307D01*
X122664Y466343D01*
X122696Y466369D01*
X122717Y466380D01*
X122739Y466403D01*
X122795Y466448D01*
X138948Y482601D01*
X234572Y482601D01*
X245525Y471648D01*
X245599Y471595D01*
X245668Y471535D01*
X245698Y471523D01*
X245724Y471504D01*
X245811Y471477D01*
X245896Y471443D01*
X245937Y471439D01*
X245959Y471432D01*
X245992Y471433D01*
X246063Y471425D01*
X251229Y471425D01*
X256458Y469259D01*
X260459Y465258D01*
X262625Y460029D01*
X262625Y454371D01*
X260459Y449142D01*
X256458Y445141D01*
X251229Y442975D01*
X245571Y442975D01*
X240342Y445141D01*
X236341Y449142D01*
X234175Y454371D01*
X234175Y460029D01*
X236341Y465258D01*
X239637Y468554D01*
X239649Y468570D01*
X239664Y468583D01*
X239720Y468670D01*
X239781Y468754D01*
X239787Y468773D01*
X239797Y468789D01*
X239823Y468890D01*
X239853Y468989D01*
X239853Y469009D01*
X239857Y469028D01*
X239849Y469131D01*
X239847Y469235D01*
X239840Y469253D01*
X239838Y469273D01*
X239798Y469368D01*
X239762Y469466D01*
X239750Y469481D01*
X239742Y469500D01*
X239637Y469631D01*
X232479Y476788D01*
X232405Y476841D01*
X232336Y476901D01*
X232306Y476913D01*
X232280Y476932D01*
X232193Y476959D01*
X232108Y476993D01*
X232067Y476997D01*
X232045Y477004D01*
X232012Y477003D01*
X231941Y477011D01*
X141579Y477011D01*
X141489Y476997D01*
X141398Y476989D01*
X141368Y476977D01*
X141336Y476972D01*
X141256Y476929D01*
X141172Y476893D01*
X141140Y476867D01*
X141119Y476856D01*
X141097Y476833D01*
X141041Y476788D01*
X131777Y467524D01*
X131735Y467466D01*
X131685Y467414D01*
X131663Y467367D01*
X131633Y467325D01*
X131612Y467256D01*
X131582Y467191D01*
X131576Y467139D01*
X131561Y467089D01*
X131563Y467018D01*
X131555Y466947D01*
X131566Y466896D01*
X131567Y466844D01*
X131592Y466776D01*
X131607Y466706D01*
X131634Y466661D01*
X131652Y466613D01*
X131696Y466557D01*
X131733Y466495D01*
X131773Y466461D01*
X131805Y466421D01*
X131866Y466382D01*
X131920Y466335D01*
X131968Y466316D01*
X132012Y466288D01*
X132082Y466270D01*
X132148Y466243D01*
X132220Y466235D01*
X132251Y466227D01*
X132274Y466229D01*
X132315Y466225D01*
X142632Y466225D01*
X143525Y465332D01*
X143525Y449068D01*
X142632Y448175D01*
X139056Y448175D01*
X139036Y448172D01*
X139017Y448174D01*
X138915Y448152D01*
X138813Y448136D01*
X138796Y448126D01*
X138776Y448122D01*
X138687Y448069D01*
X138596Y448020D01*
X138582Y448006D01*
X138565Y447996D01*
X138498Y447917D01*
X138426Y447842D01*
X138418Y447824D01*
X138405Y447809D01*
X138366Y447713D01*
X138323Y447619D01*
X138321Y447599D01*
X138313Y447581D01*
X138295Y447414D01*
X138295Y418423D01*
X138309Y418333D01*
X138317Y418242D01*
X138329Y418212D01*
X138334Y418180D01*
X138377Y418100D01*
X138413Y418016D01*
X138439Y417984D01*
X138450Y417963D01*
X138473Y417941D01*
X138518Y417885D01*
X217747Y338655D01*
X217841Y338588D01*
X217936Y338517D01*
X217942Y338515D01*
X217947Y338512D01*
X218058Y338477D01*
X218170Y338441D01*
X218176Y338441D01*
X218182Y338439D01*
X218299Y338442D01*
X218416Y338443D01*
X218423Y338445D01*
X218428Y338446D01*
X218445Y338452D01*
X218577Y338490D01*
X220447Y339265D01*
X224053Y339265D01*
X227385Y337885D01*
X229935Y335335D01*
X231315Y332003D01*
X231315Y328397D01*
X229935Y325065D01*
X227385Y322515D01*
X224053Y321135D01*
X220447Y321135D01*
X217115Y322515D01*
X214565Y325065D01*
X213185Y328397D01*
X213185Y332003D01*
X213960Y333873D01*
X213987Y333987D01*
X214015Y334100D01*
X214015Y334107D01*
X214016Y334113D01*
X214005Y334229D01*
X213996Y334346D01*
X213994Y334351D01*
X213993Y334358D01*
X213945Y334465D01*
X213900Y334572D01*
X213895Y334578D01*
X213893Y334582D01*
X213880Y334596D01*
X213795Y334703D01*
X134565Y413932D01*
X132705Y415792D01*
X132705Y445842D01*
X132694Y445913D01*
X132692Y445984D01*
X132674Y446033D01*
X132666Y446085D01*
X132632Y446148D01*
X132607Y446215D01*
X132575Y446256D01*
X132550Y446302D01*
X132498Y446351D01*
X132454Y446407D01*
X132410Y446436D01*
X132372Y446472D01*
X132307Y446502D01*
X132247Y446540D01*
X132196Y446553D01*
X132149Y446575D01*
X132078Y446583D01*
X132008Y446601D01*
X131956Y446596D01*
X131905Y446602D01*
X131834Y446587D01*
X131763Y446581D01*
X131715Y446561D01*
X131664Y446550D01*
X131603Y446513D01*
X131537Y446485D01*
X131481Y446440D01*
X131453Y446424D01*
X131438Y446406D01*
X131406Y446380D01*
X115848Y430822D01*
X113532Y430822D01*
X94219Y450135D01*
X94219Y487822D01*
X132482Y526085D01*
X132535Y526159D01*
X132595Y526228D01*
X132607Y526258D01*
X132626Y526284D01*
X132653Y526371D01*
X132687Y526456D01*
X132691Y526497D01*
X132698Y526519D01*
X132697Y526552D01*
X132705Y526623D01*
X132705Y536314D01*
X132702Y536334D01*
X132704Y536353D01*
X132682Y536455D01*
X132666Y536557D01*
X132656Y536574D01*
X132652Y536594D01*
X132599Y536683D01*
X132550Y536774D01*
X132536Y536788D01*
X132526Y536805D01*
X132447Y536872D01*
X132372Y536944D01*
X132354Y536952D01*
X132339Y536965D01*
X132243Y537004D01*
X132149Y537047D01*
X132129Y537049D01*
X132111Y537057D01*
X131944Y537075D01*
X128368Y537075D01*
X127538Y537905D01*
X127522Y537917D01*
X127510Y537933D01*
X127422Y537989D01*
X127339Y538049D01*
X127320Y538055D01*
X127303Y538066D01*
X127202Y538091D01*
X127103Y538121D01*
X127084Y538121D01*
X127064Y538126D01*
X126961Y538118D01*
X126858Y538115D01*
X126839Y538108D01*
X126819Y538107D01*
X126724Y538066D01*
X126627Y538031D01*
X126611Y538018D01*
X126593Y538010D01*
X126462Y537905D01*
X125632Y537075D01*
X111368Y537075D01*
X110475Y537968D01*
X110475Y554232D01*
X111368Y555125D01*
X122257Y555125D01*
X122347Y555139D01*
X122438Y555147D01*
X122468Y555159D01*
X122500Y555164D01*
X122581Y555207D01*
X122664Y555243D01*
X122697Y555269D01*
X122717Y555280D01*
X122739Y555303D01*
X122795Y555348D01*
X136887Y569440D01*
X136929Y569498D01*
X136979Y569550D01*
X137001Y569597D01*
X137031Y569639D01*
X137052Y569708D01*
X137082Y569773D01*
X137088Y569825D01*
X137103Y569875D01*
X137101Y569946D01*
X137109Y570017D01*
X137098Y570068D01*
X137097Y570120D01*
X137072Y570188D01*
X137057Y570258D01*
X137030Y570302D01*
X137012Y570351D01*
X136968Y570407D01*
X136931Y570469D01*
X136891Y570503D01*
X136859Y570543D01*
X136798Y570582D01*
X136744Y570629D01*
X136696Y570648D01*
X136652Y570676D01*
X136582Y570694D01*
X136516Y570721D01*
X136444Y570729D01*
X136413Y570737D01*
X136390Y570735D01*
X136349Y570739D01*
X59985Y570739D01*
X59965Y570736D01*
X59946Y570738D01*
X59780Y570711D01*
X59271Y570569D01*
X57922Y570734D01*
X57892Y570732D01*
X57830Y570739D01*
X56472Y570739D01*
X56223Y570842D01*
X56183Y570852D01*
X56146Y570869D01*
X55988Y570897D01*
X55983Y570898D01*
X55982Y570898D01*
X55981Y570899D01*
X52566Y571121D01*
X52534Y571118D01*
X52438Y571119D01*
X43171Y570159D01*
X43170Y570158D01*
X43168Y570159D01*
X43004Y570122D01*
X34183Y567124D01*
X34182Y567124D01*
X34181Y567124D01*
X34029Y567052D01*
X26096Y562166D01*
X26095Y562165D01*
X26094Y562165D01*
X25962Y562061D01*
X19315Y555532D01*
X19314Y555531D01*
X19313Y555531D01*
X19207Y555400D01*
X14180Y547556D01*
X14179Y547555D01*
X14178Y547554D01*
X14104Y547403D01*
X10948Y538637D01*
X10943Y538606D01*
X10915Y538514D01*
X10173Y534368D01*
X10172Y534338D01*
X10161Y534234D01*
X10161Y63500D01*
X10163Y63486D01*
X10162Y63463D01*
X10415Y58309D01*
X10422Y58277D01*
X10429Y58198D01*
X12439Y48089D01*
X12448Y48067D01*
X12483Y47946D01*
X16427Y38424D01*
X16440Y38403D01*
X16497Y38292D01*
X22224Y29722D01*
X22240Y29704D01*
X22318Y29607D01*
X29607Y22318D01*
X29626Y22304D01*
X29722Y22224D01*
X38292Y16497D01*
X38314Y16487D01*
X38424Y16427D01*
X47946Y12483D01*
X47969Y12477D01*
X48089Y12439D01*
X58198Y10429D01*
X58231Y10427D01*
X58309Y10415D01*
X63463Y10162D01*
X63477Y10163D01*
X63500Y10161D01*
X559001Y10161D01*
X559015Y10163D01*
G37*
%LPC*%
G36*
X228600Y355599D02*
X228600Y355599D01*
X228599Y355600D01*
X228599Y406400D01*
X228600Y406401D01*
X457200Y406401D01*
X457201Y406400D01*
X457201Y355600D01*
X457200Y355599D01*
X228600Y355599D01*
G37*
%LPD*%
%LPC*%
G36*
X220447Y67135D02*
X220447Y67135D01*
X217115Y68515D01*
X214565Y71065D01*
X213185Y74397D01*
X213185Y78003D01*
X214565Y81335D01*
X217115Y83885D01*
X219747Y84975D01*
X219830Y85026D01*
X219916Y85072D01*
X219933Y85090D01*
X219956Y85104D01*
X220018Y85180D01*
X220085Y85250D01*
X220096Y85274D01*
X220113Y85294D01*
X220147Y85385D01*
X220189Y85473D01*
X220191Y85499D01*
X220201Y85523D01*
X220205Y85621D01*
X220216Y85717D01*
X220210Y85743D01*
X220211Y85769D01*
X220184Y85863D01*
X220163Y85958D01*
X220150Y85980D01*
X220143Y86005D01*
X220087Y86085D01*
X220037Y86169D01*
X220017Y86186D01*
X220002Y86207D01*
X219924Y86266D01*
X219850Y86329D01*
X219826Y86339D01*
X219805Y86354D01*
X219713Y86384D01*
X219622Y86421D01*
X219590Y86424D01*
X219571Y86430D01*
X219538Y86430D01*
X219455Y86439D01*
X211868Y86439D01*
X210008Y88299D01*
X155107Y143201D01*
X155012Y143269D01*
X154918Y143339D01*
X154912Y143341D01*
X154907Y143344D01*
X154796Y143379D01*
X154684Y143415D01*
X154678Y143415D01*
X154672Y143417D01*
X154555Y143414D01*
X154438Y143413D01*
X154431Y143411D01*
X154426Y143410D01*
X154409Y143404D01*
X154277Y143366D01*
X154203Y143335D01*
X150597Y143335D01*
X147265Y144715D01*
X144715Y147265D01*
X143335Y150597D01*
X143335Y154203D01*
X144715Y157535D01*
X147265Y160085D01*
X150597Y161465D01*
X154203Y161465D01*
X157535Y160085D01*
X160085Y157535D01*
X161465Y154203D01*
X161465Y150597D01*
X160085Y147265D01*
X160054Y147235D01*
X160043Y147219D01*
X160027Y147206D01*
X159971Y147119D01*
X159911Y147035D01*
X159905Y147016D01*
X159894Y146999D01*
X159869Y146899D01*
X159838Y146800D01*
X159839Y146780D01*
X159834Y146761D01*
X159842Y146658D01*
X159845Y146554D01*
X159852Y146535D01*
X159853Y146515D01*
X159893Y146421D01*
X159929Y146323D01*
X159942Y146307D01*
X159949Y146289D01*
X160054Y146158D01*
X213961Y92252D01*
X214035Y92199D01*
X214104Y92139D01*
X214134Y92127D01*
X214160Y92108D01*
X214247Y92081D01*
X214332Y92047D01*
X214373Y92043D01*
X214396Y92036D01*
X214428Y92037D01*
X214499Y92029D01*
X217843Y92029D01*
X217939Y92044D01*
X218036Y92054D01*
X218060Y92064D01*
X218086Y92068D01*
X218171Y92114D01*
X218261Y92154D01*
X218280Y92171D01*
X218303Y92184D01*
X218370Y92254D01*
X218442Y92320D01*
X218454Y92343D01*
X218472Y92362D01*
X218513Y92450D01*
X218560Y92536D01*
X218565Y92561D01*
X218576Y92585D01*
X218587Y92682D01*
X218604Y92778D01*
X218600Y92803D01*
X218603Y92829D01*
X218582Y92924D01*
X218568Y93021D01*
X218556Y93044D01*
X218551Y93070D01*
X218501Y93153D01*
X218457Y93240D01*
X218438Y93258D01*
X218425Y93281D01*
X218351Y93344D01*
X218281Y93412D01*
X218253Y93428D01*
X218238Y93441D01*
X218207Y93453D01*
X218134Y93493D01*
X217115Y93915D01*
X214565Y96465D01*
X213185Y99797D01*
X213185Y103403D01*
X214565Y106735D01*
X217115Y109285D01*
X220447Y110665D01*
X224053Y110665D01*
X225923Y109890D01*
X226037Y109863D01*
X226150Y109835D01*
X226157Y109835D01*
X226163Y109834D01*
X226279Y109845D01*
X226395Y109854D01*
X226401Y109856D01*
X226408Y109857D01*
X226515Y109905D01*
X226622Y109950D01*
X226628Y109955D01*
X226632Y109957D01*
X226646Y109970D01*
X226753Y110055D01*
X436992Y320295D01*
X447249Y320295D01*
X447345Y320310D01*
X447442Y320320D01*
X447466Y320330D01*
X447492Y320334D01*
X447578Y320380D01*
X447667Y320420D01*
X447686Y320437D01*
X447709Y320450D01*
X447776Y320520D01*
X447848Y320586D01*
X447861Y320609D01*
X447879Y320628D01*
X447920Y320716D01*
X447967Y320802D01*
X447971Y320827D01*
X447982Y320851D01*
X447993Y320948D01*
X448010Y321044D01*
X448006Y321070D01*
X448009Y321095D01*
X447989Y321191D01*
X447975Y321287D01*
X447963Y321310D01*
X447957Y321336D01*
X447907Y321419D01*
X447863Y321506D01*
X447844Y321525D01*
X447831Y321547D01*
X447757Y321610D01*
X447687Y321678D01*
X447659Y321694D01*
X447644Y321707D01*
X447613Y321719D01*
X447540Y321759D01*
X445715Y322515D01*
X443165Y325065D01*
X441785Y328397D01*
X441785Y332003D01*
X443165Y335335D01*
X445715Y337885D01*
X449047Y339265D01*
X452653Y339265D01*
X455985Y337885D01*
X458535Y335335D01*
X459915Y332003D01*
X459915Y328397D01*
X458535Y325065D01*
X455985Y322515D01*
X454160Y321759D01*
X454077Y321708D01*
X453991Y321662D01*
X453973Y321643D01*
X453951Y321630D01*
X453888Y321555D01*
X453821Y321484D01*
X453810Y321460D01*
X453794Y321440D01*
X453759Y321349D01*
X453718Y321261D01*
X453715Y321235D01*
X453705Y321211D01*
X453701Y321113D01*
X453691Y321017D01*
X453696Y320991D01*
X453695Y320965D01*
X453722Y320871D01*
X453743Y320776D01*
X453756Y320754D01*
X453764Y320729D01*
X453819Y320649D01*
X453869Y320565D01*
X453889Y320548D01*
X453904Y320527D01*
X453982Y320468D01*
X454056Y320405D01*
X454080Y320395D01*
X454101Y320380D01*
X454194Y320350D01*
X454284Y320313D01*
X454317Y320310D01*
X454335Y320304D01*
X454368Y320304D01*
X454451Y320295D01*
X531267Y320295D01*
X531357Y320309D01*
X531448Y320317D01*
X531478Y320329D01*
X531510Y320334D01*
X531590Y320377D01*
X531674Y320413D01*
X531706Y320439D01*
X531727Y320450D01*
X531749Y320473D01*
X531805Y320518D01*
X569263Y357976D01*
X569305Y358034D01*
X569355Y358086D01*
X569377Y358133D01*
X569407Y358175D01*
X569428Y358244D01*
X569458Y358309D01*
X569464Y358361D01*
X569479Y358411D01*
X569477Y358482D01*
X569485Y358553D01*
X569474Y358604D01*
X569473Y358656D01*
X569448Y358724D01*
X569433Y358794D01*
X569406Y358839D01*
X569388Y358887D01*
X569344Y358943D01*
X569307Y359005D01*
X569267Y359039D01*
X569235Y359079D01*
X569174Y359118D01*
X569120Y359165D01*
X569072Y359184D01*
X569028Y359212D01*
X568958Y359230D01*
X568892Y359257D01*
X568820Y359265D01*
X568789Y359273D01*
X568766Y359271D01*
X568725Y359275D01*
X555868Y359275D01*
X554975Y360168D01*
X554975Y376432D01*
X555868Y377325D01*
X559444Y377325D01*
X559464Y377328D01*
X559483Y377326D01*
X559585Y377348D01*
X559687Y377364D01*
X559704Y377374D01*
X559724Y377378D01*
X559813Y377431D01*
X559904Y377480D01*
X559918Y377494D01*
X559935Y377504D01*
X560002Y377583D01*
X560074Y377658D01*
X560082Y377676D01*
X560095Y377691D01*
X560134Y377787D01*
X560177Y377881D01*
X560179Y377901D01*
X560187Y377919D01*
X560205Y378086D01*
X560205Y422910D01*
X560202Y422930D01*
X560204Y422949D01*
X560182Y423051D01*
X560166Y423153D01*
X560156Y423170D01*
X560152Y423190D01*
X560099Y423279D01*
X560050Y423370D01*
X560036Y423384D01*
X560026Y423401D01*
X559947Y423468D01*
X559872Y423540D01*
X559854Y423548D01*
X559839Y423561D01*
X559743Y423600D01*
X559649Y423643D01*
X559629Y423645D01*
X559611Y423653D01*
X559444Y423671D01*
X555433Y423671D01*
X550671Y428433D01*
X550671Y435167D01*
X555433Y439929D01*
X562167Y439929D01*
X566929Y435167D01*
X566929Y428433D01*
X566018Y427522D01*
X565965Y427448D01*
X565905Y427379D01*
X565893Y427348D01*
X565874Y427322D01*
X565847Y427235D01*
X565813Y427150D01*
X565809Y427109D01*
X565802Y427087D01*
X565803Y427055D01*
X565795Y426984D01*
X565795Y378086D01*
X565798Y378066D01*
X565796Y378047D01*
X565818Y377945D01*
X565834Y377843D01*
X565844Y377826D01*
X565848Y377806D01*
X565901Y377717D01*
X565950Y377626D01*
X565964Y377612D01*
X565974Y377595D01*
X566053Y377528D01*
X566128Y377456D01*
X566146Y377448D01*
X566161Y377435D01*
X566257Y377396D01*
X566351Y377353D01*
X566371Y377351D01*
X566389Y377343D01*
X566556Y377325D01*
X570132Y377325D01*
X570962Y376495D01*
X570978Y376483D01*
X570990Y376467D01*
X571078Y376411D01*
X571161Y376351D01*
X571180Y376345D01*
X571197Y376334D01*
X571298Y376309D01*
X571397Y376279D01*
X571416Y376279D01*
X571436Y376274D01*
X571539Y376282D01*
X571642Y376285D01*
X571661Y376292D01*
X571681Y376293D01*
X571776Y376334D01*
X571873Y376369D01*
X571889Y376382D01*
X571907Y376390D01*
X572038Y376495D01*
X572868Y377325D01*
X587132Y377325D01*
X588025Y376432D01*
X588025Y360168D01*
X587132Y359275D01*
X578783Y359275D01*
X578693Y359261D01*
X578602Y359253D01*
X578572Y359241D01*
X578540Y359236D01*
X578459Y359193D01*
X578376Y359157D01*
X578343Y359131D01*
X578323Y359120D01*
X578301Y359097D01*
X578245Y359052D01*
X533898Y314705D01*
X454451Y314705D01*
X454355Y314690D01*
X454258Y314680D01*
X454234Y314670D01*
X454208Y314666D01*
X454122Y314620D01*
X454033Y314580D01*
X454014Y314563D01*
X453991Y314550D01*
X453924Y314480D01*
X453852Y314414D01*
X453839Y314391D01*
X453821Y314372D01*
X453780Y314284D01*
X453733Y314198D01*
X453729Y314173D01*
X453718Y314149D01*
X453707Y314052D01*
X453690Y313956D01*
X453694Y313930D01*
X453691Y313905D01*
X453711Y313809D01*
X453725Y313713D01*
X453737Y313690D01*
X453743Y313664D01*
X453793Y313581D01*
X453837Y313494D01*
X453856Y313475D01*
X453869Y313453D01*
X453943Y313390D01*
X454013Y313322D01*
X454041Y313306D01*
X454056Y313293D01*
X454087Y313281D01*
X454160Y313241D01*
X455985Y312485D01*
X458535Y309935D01*
X459915Y306603D01*
X459915Y302997D01*
X458535Y299665D01*
X455985Y297115D01*
X452653Y295735D01*
X449047Y295735D01*
X445715Y297115D01*
X443165Y299665D01*
X441785Y302997D01*
X441785Y306603D01*
X443165Y309935D01*
X445715Y312485D01*
X447540Y313241D01*
X447623Y313292D01*
X447709Y313338D01*
X447727Y313357D01*
X447749Y313370D01*
X447812Y313445D01*
X447879Y313516D01*
X447890Y313540D01*
X447906Y313560D01*
X447941Y313651D01*
X447982Y313739D01*
X447985Y313765D01*
X447995Y313789D01*
X447999Y313887D01*
X448009Y313983D01*
X448004Y314009D01*
X448005Y314035D01*
X447978Y314129D01*
X447957Y314224D01*
X447944Y314246D01*
X447936Y314271D01*
X447881Y314351D01*
X447831Y314435D01*
X447811Y314452D01*
X447796Y314473D01*
X447718Y314532D01*
X447644Y314595D01*
X447620Y314605D01*
X447599Y314620D01*
X447506Y314650D01*
X447416Y314687D01*
X447383Y314690D01*
X447365Y314696D01*
X447332Y314696D01*
X447249Y314705D01*
X439623Y314705D01*
X439533Y314691D01*
X439442Y314683D01*
X439412Y314671D01*
X439380Y314666D01*
X439300Y314623D01*
X439216Y314587D01*
X439184Y314561D01*
X439163Y314550D01*
X439141Y314527D01*
X439085Y314482D01*
X230705Y106103D01*
X230638Y106009D01*
X230567Y105914D01*
X230565Y105908D01*
X230562Y105903D01*
X230527Y105792D01*
X230491Y105680D01*
X230491Y105674D01*
X230489Y105668D01*
X230492Y105551D01*
X230493Y105434D01*
X230495Y105427D01*
X230496Y105422D01*
X230502Y105405D01*
X230540Y105273D01*
X231315Y103403D01*
X231315Y99797D01*
X229935Y96465D01*
X227385Y93915D01*
X226366Y93493D01*
X226283Y93442D01*
X226197Y93396D01*
X226179Y93377D01*
X226157Y93364D01*
X226095Y93289D01*
X226028Y93218D01*
X226017Y93194D01*
X226000Y93174D01*
X225965Y93083D01*
X225924Y92995D01*
X225921Y92969D01*
X225912Y92945D01*
X225908Y92847D01*
X225897Y92750D01*
X225902Y92725D01*
X225901Y92699D01*
X225928Y92605D01*
X225949Y92510D01*
X225963Y92488D01*
X225970Y92463D01*
X226025Y92383D01*
X226075Y92299D01*
X226095Y92282D01*
X226110Y92261D01*
X226188Y92202D01*
X226262Y92139D01*
X226287Y92129D01*
X226308Y92114D01*
X226400Y92084D01*
X226490Y92047D01*
X226523Y92044D01*
X226541Y92038D01*
X226574Y92038D01*
X226657Y92029D01*
X437011Y92029D01*
X437101Y92043D01*
X437192Y92051D01*
X437222Y92063D01*
X437254Y92068D01*
X437334Y92111D01*
X437418Y92147D01*
X437450Y92173D01*
X437471Y92184D01*
X437493Y92207D01*
X437549Y92252D01*
X442395Y97097D01*
X442462Y97191D01*
X442533Y97286D01*
X442535Y97292D01*
X442538Y97297D01*
X442573Y97408D01*
X442609Y97520D01*
X442609Y97526D01*
X442611Y97532D01*
X442608Y97649D01*
X442607Y97766D01*
X442605Y97773D01*
X442604Y97778D01*
X442598Y97795D01*
X442560Y97927D01*
X441785Y99797D01*
X441785Y103403D01*
X443165Y106735D01*
X445715Y109285D01*
X449047Y110665D01*
X452653Y110665D01*
X455985Y109285D01*
X458535Y106735D01*
X459915Y103403D01*
X459915Y99797D01*
X458535Y96465D01*
X455985Y93915D01*
X452653Y92535D01*
X449047Y92535D01*
X447177Y93310D01*
X447063Y93337D01*
X446950Y93365D01*
X446943Y93365D01*
X446937Y93366D01*
X446821Y93355D01*
X446705Y93346D01*
X446699Y93344D01*
X446692Y93343D01*
X446585Y93295D01*
X446478Y93250D01*
X446472Y93245D01*
X446468Y93243D01*
X446454Y93230D01*
X446347Y93145D01*
X439642Y86439D01*
X225045Y86439D01*
X224949Y86424D01*
X224852Y86414D01*
X224828Y86404D01*
X224802Y86399D01*
X224716Y86354D01*
X224627Y86314D01*
X224608Y86297D01*
X224584Y86284D01*
X224517Y86214D01*
X224446Y86148D01*
X224433Y86125D01*
X224415Y86106D01*
X224374Y86018D01*
X224327Y85932D01*
X224322Y85907D01*
X224311Y85883D01*
X224301Y85786D01*
X224283Y85690D01*
X224287Y85664D01*
X224284Y85639D01*
X224305Y85543D01*
X224319Y85447D01*
X224331Y85424D01*
X224337Y85398D01*
X224387Y85315D01*
X224431Y85228D01*
X224449Y85209D01*
X224463Y85187D01*
X224537Y85124D01*
X224606Y85056D01*
X224635Y85040D01*
X224650Y85027D01*
X224680Y85015D01*
X224753Y84975D01*
X227385Y83885D01*
X229935Y81335D01*
X231315Y78003D01*
X231315Y74397D01*
X229935Y71065D01*
X227385Y68515D01*
X224053Y67135D01*
X220447Y67135D01*
G37*
%LPD*%
%LPC*%
G36*
X557379Y23887D02*
X557379Y23887D01*
X546104Y28312D01*
X536634Y35863D01*
X529812Y45870D01*
X526242Y57444D01*
X526242Y69556D01*
X529812Y81130D01*
X530440Y82051D01*
X530440Y82052D01*
X531478Y83574D01*
X533035Y85858D01*
X534073Y87380D01*
X535111Y88903D01*
X536635Y91137D01*
X546104Y98688D01*
X557378Y103113D01*
X569456Y104019D01*
X570357Y103813D01*
X573692Y103052D01*
X577028Y102290D01*
X580363Y101529D01*
X581265Y101323D01*
X591754Y95267D01*
X599992Y86389D01*
X605247Y75477D01*
X607052Y63500D01*
X605247Y51523D01*
X599992Y40611D01*
X591754Y31733D01*
X581265Y25677D01*
X569456Y22981D01*
X557379Y23887D01*
G37*
%LPD*%
%LPC*%
G36*
X557378Y481087D02*
X557378Y481087D01*
X546104Y485512D01*
X536635Y493063D01*
X529812Y503070D01*
X526242Y514644D01*
X526242Y526756D01*
X529812Y538330D01*
X531171Y540324D01*
X532209Y541846D01*
X532210Y541847D01*
X533247Y543369D01*
X533248Y543369D01*
X534804Y545653D01*
X534805Y545653D01*
X535842Y547175D01*
X535843Y547175D01*
X536635Y548337D01*
X546104Y555888D01*
X557378Y560313D01*
X569456Y561219D01*
X572329Y560563D01*
X575664Y559802D01*
X578999Y559040D01*
X581265Y558523D01*
X591754Y552467D01*
X599992Y543589D01*
X605247Y532677D01*
X607052Y520700D01*
X605247Y508723D01*
X599992Y497811D01*
X591754Y488933D01*
X581265Y482877D01*
X569456Y480181D01*
X557378Y481087D01*
G37*
%LPD*%
%LPC*%
G36*
X46838Y481087D02*
X46838Y481087D01*
X35564Y485512D01*
X26095Y493063D01*
X19272Y503070D01*
X15702Y514644D01*
X15702Y526756D01*
X19272Y538330D01*
X20631Y540324D01*
X21669Y541846D01*
X21670Y541847D01*
X22707Y543369D01*
X22708Y543369D01*
X24264Y545653D01*
X24265Y545653D01*
X25302Y547175D01*
X25303Y547175D01*
X26095Y548337D01*
X35564Y555888D01*
X46838Y560313D01*
X58916Y561219D01*
X61789Y560563D01*
X65124Y559802D01*
X68459Y559040D01*
X70725Y558523D01*
X81214Y552467D01*
X89452Y543589D01*
X94707Y532677D01*
X96512Y520700D01*
X94707Y508723D01*
X89452Y497811D01*
X81214Y488932D01*
X70725Y482877D01*
X58916Y480181D01*
X46838Y481087D01*
G37*
%LPD*%
%LPC*%
G36*
X46838Y23887D02*
X46838Y23887D01*
X35564Y28312D01*
X26095Y35863D01*
X19272Y45870D01*
X15702Y57444D01*
X15702Y69556D01*
X19272Y81130D01*
X19900Y82051D01*
X19900Y82052D01*
X20938Y83574D01*
X22495Y85858D01*
X23533Y87380D01*
X24571Y88903D01*
X26095Y91137D01*
X35564Y98688D01*
X46838Y103113D01*
X58916Y104019D01*
X59817Y103813D01*
X63152Y103052D01*
X66488Y102290D01*
X69823Y101529D01*
X70725Y101323D01*
X81214Y95267D01*
X89452Y86389D01*
X94707Y75476D01*
X96512Y63500D01*
X94707Y51523D01*
X89452Y40611D01*
X81214Y31733D01*
X70725Y25677D01*
X58916Y22981D01*
X46838Y23887D01*
G37*
%LPD*%
%LPC*%
G36*
X220447Y168735D02*
X220447Y168735D01*
X217115Y170115D01*
X214565Y172665D01*
X213185Y175997D01*
X213185Y179603D01*
X213960Y181473D01*
X213987Y181587D01*
X214015Y181700D01*
X214015Y181707D01*
X214016Y181713D01*
X214005Y181829D01*
X213996Y181946D01*
X213994Y181951D01*
X213993Y181958D01*
X213945Y182065D01*
X213900Y182172D01*
X213895Y182178D01*
X213893Y182182D01*
X213880Y182196D01*
X213795Y182303D01*
X191470Y204627D01*
X189610Y206487D01*
X189610Y263144D01*
X189607Y263164D01*
X189609Y263183D01*
X189587Y263285D01*
X189571Y263387D01*
X189561Y263404D01*
X189557Y263424D01*
X189504Y263513D01*
X189455Y263604D01*
X189441Y263618D01*
X189431Y263635D01*
X189352Y263702D01*
X189277Y263774D01*
X189259Y263782D01*
X189244Y263795D01*
X189148Y263834D01*
X189054Y263877D01*
X189034Y263879D01*
X189016Y263887D01*
X188849Y263905D01*
X181401Y263905D01*
X181305Y263890D01*
X181208Y263880D01*
X181184Y263870D01*
X181158Y263866D01*
X181072Y263820D01*
X180983Y263780D01*
X180964Y263763D01*
X180941Y263750D01*
X180874Y263680D01*
X180802Y263614D01*
X180789Y263591D01*
X180771Y263572D01*
X180730Y263484D01*
X180683Y263398D01*
X180679Y263373D01*
X180668Y263349D01*
X180657Y263252D01*
X180640Y263156D01*
X180644Y263130D01*
X180641Y263105D01*
X180661Y263009D01*
X180676Y262913D01*
X180687Y262890D01*
X180693Y262864D01*
X180743Y262781D01*
X180787Y262694D01*
X180806Y262675D01*
X180819Y262653D01*
X180893Y262590D01*
X180963Y262522D01*
X180991Y262506D01*
X181006Y262493D01*
X181037Y262481D01*
X181110Y262441D01*
X182935Y261685D01*
X185485Y259135D01*
X186865Y255803D01*
X186865Y252197D01*
X185485Y248865D01*
X182935Y246315D01*
X181065Y245541D01*
X180965Y245479D01*
X180865Y245419D01*
X180861Y245414D01*
X180856Y245411D01*
X180781Y245321D01*
X180705Y245232D01*
X180703Y245226D01*
X180699Y245222D01*
X180657Y245113D01*
X180613Y245004D01*
X180612Y244997D01*
X180611Y244992D01*
X180610Y244974D01*
X180595Y244837D01*
X180595Y237763D01*
X180597Y237748D01*
X180596Y237735D01*
X180610Y237670D01*
X180614Y237648D01*
X180631Y237532D01*
X180633Y237526D01*
X180634Y237520D01*
X180689Y237417D01*
X180742Y237312D01*
X180747Y237308D01*
X180750Y237303D01*
X180834Y237223D01*
X180918Y237140D01*
X180924Y237137D01*
X180928Y237133D01*
X180945Y237125D01*
X181065Y237059D01*
X182935Y236285D01*
X185485Y233735D01*
X186865Y230403D01*
X186865Y226797D01*
X185485Y223465D01*
X182935Y220915D01*
X179603Y219535D01*
X175997Y219535D01*
X172665Y220915D01*
X170115Y223465D01*
X168735Y226797D01*
X168735Y230403D01*
X170115Y233735D01*
X172665Y236285D01*
X174535Y237059D01*
X174635Y237121D01*
X174735Y237181D01*
X174739Y237186D01*
X174744Y237189D01*
X174819Y237279D01*
X174895Y237368D01*
X174897Y237374D01*
X174901Y237378D01*
X174943Y237487D01*
X174970Y237553D01*
X174977Y237569D01*
X174978Y237573D01*
X174987Y237596D01*
X174988Y237603D01*
X174989Y237608D01*
X174990Y237626D01*
X175005Y237763D01*
X175005Y244837D01*
X174986Y244952D01*
X174969Y245068D01*
X174967Y245074D01*
X174966Y245080D01*
X174912Y245182D01*
X174858Y245288D01*
X174853Y245292D01*
X174850Y245297D01*
X174766Y245377D01*
X174682Y245460D01*
X174676Y245463D01*
X174672Y245467D01*
X174655Y245475D01*
X174535Y245541D01*
X172665Y246315D01*
X170115Y248865D01*
X168735Y252197D01*
X168735Y255803D01*
X170115Y259135D01*
X172665Y261685D01*
X174490Y262441D01*
X174573Y262492D01*
X174659Y262538D01*
X174677Y262556D01*
X174699Y262570D01*
X174762Y262646D01*
X174829Y262716D01*
X174840Y262740D01*
X174856Y262760D01*
X174891Y262851D01*
X174932Y262939D01*
X174935Y262965D01*
X174944Y262989D01*
X174949Y263087D01*
X174959Y263183D01*
X174954Y263209D01*
X174955Y263235D01*
X174928Y263329D01*
X174907Y263424D01*
X174894Y263446D01*
X174886Y263471D01*
X174831Y263551D01*
X174781Y263635D01*
X174761Y263652D01*
X174746Y263673D01*
X174668Y263732D01*
X174594Y263795D01*
X174570Y263805D01*
X174549Y263820D01*
X174456Y263850D01*
X174366Y263887D01*
X174333Y263890D01*
X174315Y263896D01*
X174282Y263896D01*
X174199Y263905D01*
X158260Y263905D01*
X158252Y263904D01*
X158244Y263905D01*
X158130Y263884D01*
X158017Y263866D01*
X158010Y263862D01*
X158002Y263860D01*
X157901Y263804D01*
X157800Y263750D01*
X157794Y263745D01*
X157787Y263741D01*
X157709Y263655D01*
X157630Y263572D01*
X157627Y263565D01*
X157622Y263559D01*
X157575Y263453D01*
X157527Y263349D01*
X157526Y263341D01*
X157523Y263334D01*
X157512Y263219D01*
X157500Y263105D01*
X157501Y263097D01*
X157501Y263089D01*
X157527Y262977D01*
X157552Y262864D01*
X157556Y262857D01*
X157558Y262850D01*
X157619Y262752D01*
X157678Y262653D01*
X157684Y262648D01*
X157688Y262641D01*
X157812Y262528D01*
X158967Y261689D01*
X160089Y260567D01*
X161022Y259283D01*
X161742Y257870D01*
X162233Y256361D01*
X162365Y255523D01*
X153162Y255523D01*
X153142Y255520D01*
X153123Y255522D01*
X153021Y255500D01*
X152919Y255483D01*
X152902Y255474D01*
X152882Y255470D01*
X152793Y255417D01*
X152702Y255368D01*
X152688Y255354D01*
X152671Y255344D01*
X152604Y255265D01*
X152533Y255190D01*
X152524Y255172D01*
X152511Y255157D01*
X152473Y255061D01*
X152429Y254967D01*
X152427Y254947D01*
X152419Y254929D01*
X152401Y254762D01*
X152401Y253999D01*
X152399Y253999D01*
X152399Y254762D01*
X152396Y254782D01*
X152398Y254801D01*
X152376Y254903D01*
X152359Y255005D01*
X152350Y255022D01*
X152346Y255042D01*
X152293Y255131D01*
X152244Y255222D01*
X152230Y255236D01*
X152220Y255253D01*
X152141Y255320D01*
X152066Y255391D01*
X152048Y255400D01*
X152033Y255413D01*
X151937Y255452D01*
X151843Y255495D01*
X151823Y255497D01*
X151805Y255505D01*
X151638Y255523D01*
X142435Y255523D01*
X142567Y256361D01*
X143058Y257870D01*
X143778Y259283D01*
X144711Y260567D01*
X145833Y261689D01*
X146988Y262528D01*
X146993Y262534D01*
X147000Y262538D01*
X147080Y262621D01*
X147161Y262703D01*
X147164Y262710D01*
X147170Y262716D01*
X147218Y262820D01*
X147269Y262924D01*
X147270Y262932D01*
X147273Y262939D01*
X147286Y263053D01*
X147301Y263168D01*
X147300Y263176D01*
X147300Y263183D01*
X147276Y263296D01*
X147254Y263409D01*
X147250Y263416D01*
X147248Y263424D01*
X147189Y263522D01*
X147132Y263623D01*
X147126Y263628D01*
X147122Y263635D01*
X147035Y263709D01*
X146948Y263787D01*
X146941Y263790D01*
X146935Y263795D01*
X146828Y263838D01*
X146722Y263883D01*
X146714Y263884D01*
X146707Y263887D01*
X146540Y263905D01*
X73473Y263905D01*
X73383Y263891D01*
X73292Y263883D01*
X73262Y263871D01*
X73230Y263866D01*
X73150Y263823D01*
X73066Y263787D01*
X73034Y263761D01*
X73013Y263750D01*
X72991Y263727D01*
X72935Y263682D01*
X67548Y258295D01*
X67495Y258221D01*
X67435Y258152D01*
X67423Y258122D01*
X67404Y258096D01*
X67377Y258009D01*
X67343Y257924D01*
X67339Y257883D01*
X67332Y257861D01*
X67333Y257828D01*
X67325Y257757D01*
X67325Y245868D01*
X66432Y244975D01*
X52168Y244975D01*
X51338Y245805D01*
X51322Y245817D01*
X51310Y245833D01*
X51222Y245889D01*
X51139Y245949D01*
X51120Y245955D01*
X51103Y245966D01*
X51002Y245991D01*
X50903Y246021D01*
X50884Y246021D01*
X50864Y246026D01*
X50761Y246018D01*
X50658Y246015D01*
X50639Y246008D01*
X50619Y246007D01*
X50524Y245966D01*
X50427Y245931D01*
X50411Y245918D01*
X50393Y245910D01*
X50262Y245805D01*
X49432Y244975D01*
X35168Y244975D01*
X34275Y245868D01*
X34275Y262132D01*
X35168Y263025D01*
X38744Y263025D01*
X38764Y263028D01*
X38783Y263026D01*
X38885Y263048D01*
X38987Y263064D01*
X39004Y263074D01*
X39024Y263078D01*
X39113Y263131D01*
X39204Y263180D01*
X39218Y263194D01*
X39235Y263204D01*
X39302Y263283D01*
X39374Y263358D01*
X39382Y263376D01*
X39395Y263391D01*
X39434Y263487D01*
X39477Y263581D01*
X39479Y263601D01*
X39487Y263619D01*
X39505Y263786D01*
X39505Y295910D01*
X39502Y295930D01*
X39504Y295949D01*
X39482Y296051D01*
X39466Y296153D01*
X39456Y296170D01*
X39452Y296190D01*
X39399Y296279D01*
X39350Y296370D01*
X39336Y296384D01*
X39326Y296401D01*
X39247Y296468D01*
X39172Y296540D01*
X39154Y296548D01*
X39139Y296561D01*
X39043Y296600D01*
X38949Y296643D01*
X38929Y296645D01*
X38911Y296653D01*
X38744Y296671D01*
X34733Y296671D01*
X29971Y301433D01*
X29971Y308167D01*
X34733Y312929D01*
X41467Y312929D01*
X46229Y308167D01*
X46229Y301433D01*
X45318Y300522D01*
X45265Y300448D01*
X45205Y300379D01*
X45193Y300348D01*
X45174Y300322D01*
X45147Y300235D01*
X45113Y300150D01*
X45109Y300109D01*
X45102Y300087D01*
X45103Y300055D01*
X45095Y299984D01*
X45095Y263786D01*
X45098Y263766D01*
X45096Y263747D01*
X45118Y263645D01*
X45134Y263543D01*
X45144Y263526D01*
X45148Y263506D01*
X45201Y263417D01*
X45250Y263326D01*
X45264Y263312D01*
X45274Y263295D01*
X45353Y263228D01*
X45428Y263156D01*
X45446Y263148D01*
X45461Y263135D01*
X45557Y263096D01*
X45651Y263053D01*
X45671Y263051D01*
X45689Y263043D01*
X45856Y263025D01*
X49432Y263025D01*
X50262Y262195D01*
X50278Y262183D01*
X50290Y262167D01*
X50378Y262111D01*
X50461Y262051D01*
X50480Y262045D01*
X50497Y262034D01*
X50598Y262009D01*
X50697Y261979D01*
X50716Y261979D01*
X50736Y261974D01*
X50839Y261982D01*
X50942Y261985D01*
X50961Y261992D01*
X50981Y261993D01*
X51076Y262034D01*
X51173Y262069D01*
X51189Y262082D01*
X51207Y262090D01*
X51338Y262195D01*
X52168Y263025D01*
X64057Y263025D01*
X64147Y263039D01*
X64238Y263047D01*
X64268Y263059D01*
X64300Y263064D01*
X64380Y263107D01*
X64464Y263143D01*
X64496Y263169D01*
X64517Y263180D01*
X64539Y263203D01*
X64595Y263248D01*
X70842Y269495D01*
X148799Y269495D01*
X148895Y269510D01*
X148992Y269520D01*
X149016Y269530D01*
X149042Y269534D01*
X149128Y269580D01*
X149217Y269620D01*
X149236Y269637D01*
X149259Y269650D01*
X149326Y269720D01*
X149398Y269786D01*
X149411Y269809D01*
X149429Y269828D01*
X149470Y269916D01*
X149517Y270002D01*
X149521Y270027D01*
X149532Y270051D01*
X149543Y270148D01*
X149560Y270244D01*
X149556Y270270D01*
X149559Y270295D01*
X149539Y270391D01*
X149524Y270487D01*
X149513Y270510D01*
X149507Y270536D01*
X149457Y270619D01*
X149413Y270706D01*
X149394Y270725D01*
X149381Y270747D01*
X149307Y270810D01*
X149237Y270878D01*
X149209Y270894D01*
X149194Y270907D01*
X149163Y270919D01*
X149090Y270959D01*
X147265Y271715D01*
X144715Y274265D01*
X143335Y277597D01*
X143335Y281203D01*
X144715Y284535D01*
X147265Y287085D01*
X150597Y288465D01*
X154203Y288465D01*
X157535Y287085D01*
X160085Y284535D01*
X161465Y281203D01*
X161465Y277597D01*
X160085Y274265D01*
X157535Y271715D01*
X155710Y270959D01*
X155627Y270908D01*
X155541Y270862D01*
X155523Y270844D01*
X155501Y270830D01*
X155438Y270754D01*
X155371Y270684D01*
X155360Y270660D01*
X155344Y270640D01*
X155309Y270549D01*
X155268Y270461D01*
X155265Y270435D01*
X155256Y270411D01*
X155251Y270313D01*
X155241Y270217D01*
X155246Y270191D01*
X155245Y270165D01*
X155272Y270071D01*
X155293Y269976D01*
X155306Y269954D01*
X155314Y269929D01*
X155369Y269849D01*
X155419Y269765D01*
X155439Y269748D01*
X155454Y269727D01*
X155532Y269668D01*
X155606Y269605D01*
X155630Y269595D01*
X155651Y269580D01*
X155744Y269550D01*
X155834Y269513D01*
X155867Y269510D01*
X155885Y269504D01*
X155918Y269504D01*
X156001Y269495D01*
X174199Y269495D01*
X174295Y269510D01*
X174392Y269520D01*
X174416Y269530D01*
X174442Y269534D01*
X174528Y269580D01*
X174617Y269620D01*
X174636Y269637D01*
X174659Y269650D01*
X174726Y269720D01*
X174798Y269786D01*
X174811Y269809D01*
X174829Y269828D01*
X174870Y269916D01*
X174917Y270002D01*
X174921Y270027D01*
X174932Y270051D01*
X174943Y270148D01*
X174960Y270244D01*
X174956Y270270D01*
X174959Y270295D01*
X174939Y270391D01*
X174924Y270487D01*
X174913Y270510D01*
X174907Y270536D01*
X174857Y270619D01*
X174813Y270706D01*
X174794Y270725D01*
X174781Y270747D01*
X174707Y270810D01*
X174637Y270878D01*
X174609Y270894D01*
X174594Y270907D01*
X174563Y270919D01*
X174490Y270959D01*
X172665Y271715D01*
X170115Y274265D01*
X168735Y277597D01*
X168735Y281203D01*
X170115Y284535D01*
X172665Y287085D01*
X175997Y288465D01*
X179603Y288465D01*
X182935Y287085D01*
X185485Y284535D01*
X186865Y281203D01*
X186865Y277597D01*
X185485Y274265D01*
X182935Y271715D01*
X181110Y270959D01*
X181027Y270908D01*
X180941Y270862D01*
X180923Y270844D01*
X180901Y270830D01*
X180838Y270754D01*
X180771Y270684D01*
X180760Y270660D01*
X180744Y270640D01*
X180709Y270549D01*
X180668Y270461D01*
X180665Y270435D01*
X180656Y270411D01*
X180651Y270313D01*
X180641Y270217D01*
X180646Y270191D01*
X180645Y270165D01*
X180672Y270071D01*
X180693Y269976D01*
X180706Y269954D01*
X180714Y269929D01*
X180769Y269849D01*
X180819Y269765D01*
X180839Y269748D01*
X180854Y269727D01*
X180932Y269668D01*
X181006Y269605D01*
X181030Y269595D01*
X181051Y269580D01*
X181144Y269550D01*
X181234Y269513D01*
X181267Y269510D01*
X181285Y269504D01*
X181318Y269504D01*
X181401Y269495D01*
X193563Y269495D01*
X195200Y267858D01*
X195200Y209118D01*
X195214Y209028D01*
X195222Y208937D01*
X195234Y208907D01*
X195239Y208875D01*
X195282Y208795D01*
X195318Y208711D01*
X195344Y208679D01*
X195355Y208658D01*
X195378Y208636D01*
X195423Y208580D01*
X217747Y186255D01*
X217841Y186188D01*
X217936Y186117D01*
X217942Y186115D01*
X217947Y186112D01*
X218058Y186077D01*
X218170Y186041D01*
X218176Y186041D01*
X218182Y186039D01*
X218299Y186042D01*
X218416Y186043D01*
X218423Y186045D01*
X218428Y186046D01*
X218445Y186052D01*
X218577Y186090D01*
X220447Y186865D01*
X224053Y186865D01*
X227385Y185485D01*
X229935Y182935D01*
X231315Y179603D01*
X231315Y175997D01*
X229935Y172665D01*
X227385Y170115D01*
X224053Y168735D01*
X220447Y168735D01*
G37*
%LPD*%
%LPC*%
G36*
X220447Y219535D02*
X220447Y219535D01*
X217115Y220915D01*
X214565Y223465D01*
X213185Y226797D01*
X213185Y230403D01*
X213960Y232273D01*
X213987Y232387D01*
X214015Y232500D01*
X214015Y232507D01*
X214016Y232513D01*
X214005Y232629D01*
X213996Y232746D01*
X213994Y232751D01*
X213993Y232758D01*
X213945Y232865D01*
X213900Y232972D01*
X213895Y232978D01*
X213893Y232982D01*
X213880Y232996D01*
X213795Y233103D01*
X199090Y247807D01*
X197230Y249667D01*
X197230Y279758D01*
X197216Y279848D01*
X197208Y279939D01*
X197196Y279969D01*
X197191Y280001D01*
X197148Y280082D01*
X197112Y280166D01*
X197086Y280198D01*
X197075Y280218D01*
X197052Y280241D01*
X197007Y280296D01*
X112021Y365282D01*
X111948Y365335D01*
X111878Y365395D01*
X111848Y365407D01*
X111822Y365426D01*
X111735Y365453D01*
X111650Y365487D01*
X111609Y365491D01*
X111587Y365498D01*
X111554Y365497D01*
X111483Y365505D01*
X68086Y365505D01*
X68066Y365502D01*
X68047Y365504D01*
X67945Y365482D01*
X67843Y365466D01*
X67826Y365456D01*
X67806Y365452D01*
X67717Y365399D01*
X67626Y365350D01*
X67612Y365336D01*
X67595Y365326D01*
X67528Y365247D01*
X67456Y365172D01*
X67448Y365154D01*
X67435Y365139D01*
X67396Y365043D01*
X67353Y364949D01*
X67351Y364929D01*
X67343Y364911D01*
X67325Y364744D01*
X67325Y360168D01*
X66432Y359275D01*
X52168Y359275D01*
X51338Y360105D01*
X51322Y360117D01*
X51310Y360133D01*
X51222Y360189D01*
X51139Y360249D01*
X51120Y360255D01*
X51103Y360266D01*
X51002Y360291D01*
X50903Y360321D01*
X50884Y360321D01*
X50864Y360326D01*
X50761Y360318D01*
X50658Y360315D01*
X50639Y360308D01*
X50619Y360307D01*
X50524Y360266D01*
X50427Y360231D01*
X50411Y360218D01*
X50393Y360210D01*
X50262Y360105D01*
X49432Y359275D01*
X35168Y359275D01*
X34275Y360168D01*
X34275Y376432D01*
X35168Y377325D01*
X38744Y377325D01*
X38764Y377328D01*
X38783Y377326D01*
X38885Y377348D01*
X38987Y377364D01*
X39004Y377374D01*
X39024Y377378D01*
X39113Y377431D01*
X39204Y377480D01*
X39218Y377494D01*
X39235Y377504D01*
X39302Y377583D01*
X39374Y377658D01*
X39382Y377676D01*
X39395Y377691D01*
X39434Y377787D01*
X39477Y377881D01*
X39479Y377901D01*
X39487Y377919D01*
X39505Y378086D01*
X39505Y422910D01*
X39502Y422930D01*
X39504Y422949D01*
X39482Y423051D01*
X39466Y423153D01*
X39456Y423170D01*
X39452Y423190D01*
X39399Y423279D01*
X39350Y423370D01*
X39336Y423384D01*
X39326Y423401D01*
X39247Y423468D01*
X39172Y423540D01*
X39154Y423548D01*
X39139Y423561D01*
X39043Y423600D01*
X38949Y423643D01*
X38929Y423645D01*
X38911Y423653D01*
X38744Y423671D01*
X34733Y423671D01*
X29971Y428433D01*
X29971Y435167D01*
X34733Y439929D01*
X41467Y439929D01*
X46229Y435167D01*
X46229Y428433D01*
X45318Y427522D01*
X45265Y427448D01*
X45205Y427379D01*
X45193Y427348D01*
X45174Y427322D01*
X45147Y427235D01*
X45113Y427150D01*
X45109Y427109D01*
X45102Y427087D01*
X45103Y427055D01*
X45095Y426984D01*
X45095Y378086D01*
X45098Y378066D01*
X45096Y378047D01*
X45118Y377945D01*
X45134Y377843D01*
X45144Y377826D01*
X45148Y377806D01*
X45201Y377717D01*
X45250Y377626D01*
X45264Y377612D01*
X45274Y377595D01*
X45353Y377528D01*
X45428Y377456D01*
X45446Y377448D01*
X45461Y377435D01*
X45557Y377396D01*
X45651Y377353D01*
X45671Y377351D01*
X45689Y377343D01*
X45856Y377325D01*
X49432Y377325D01*
X50262Y376495D01*
X50278Y376483D01*
X50290Y376467D01*
X50378Y376411D01*
X50461Y376351D01*
X50480Y376345D01*
X50497Y376334D01*
X50598Y376309D01*
X50697Y376279D01*
X50716Y376279D01*
X50736Y376274D01*
X50839Y376282D01*
X50942Y376285D01*
X50961Y376292D01*
X50981Y376293D01*
X51076Y376334D01*
X51173Y376369D01*
X51189Y376382D01*
X51207Y376390D01*
X51338Y376495D01*
X52168Y377325D01*
X66432Y377325D01*
X67325Y376432D01*
X67325Y371856D01*
X67328Y371836D01*
X67326Y371817D01*
X67348Y371715D01*
X67364Y371613D01*
X67374Y371596D01*
X67378Y371576D01*
X67431Y371487D01*
X67480Y371396D01*
X67494Y371382D01*
X67504Y371365D01*
X67583Y371298D01*
X67658Y371226D01*
X67676Y371218D01*
X67691Y371205D01*
X67787Y371166D01*
X67881Y371123D01*
X67901Y371121D01*
X67919Y371113D01*
X68086Y371095D01*
X114114Y371095D01*
X202820Y282389D01*
X202820Y252298D01*
X202834Y252208D01*
X202842Y252117D01*
X202854Y252087D01*
X202859Y252055D01*
X202902Y251975D01*
X202938Y251891D01*
X202964Y251859D01*
X202975Y251838D01*
X202998Y251816D01*
X203043Y251760D01*
X217747Y237055D01*
X217841Y236988D01*
X217936Y236917D01*
X217942Y236915D01*
X217947Y236912D01*
X218058Y236877D01*
X218170Y236841D01*
X218176Y236841D01*
X218182Y236839D01*
X218299Y236842D01*
X218416Y236843D01*
X218423Y236845D01*
X218428Y236846D01*
X218445Y236852D01*
X218577Y236890D01*
X220447Y237665D01*
X224053Y237665D01*
X227385Y236285D01*
X229935Y233735D01*
X231315Y230403D01*
X231315Y226797D01*
X229935Y223465D01*
X227385Y220915D01*
X224053Y219535D01*
X220447Y219535D01*
G37*
%LPD*%
%LPC*%
G36*
X491728Y132969D02*
X491728Y132969D01*
X455353Y169345D01*
X455259Y169412D01*
X455164Y169483D01*
X455158Y169485D01*
X455153Y169488D01*
X455042Y169523D01*
X454930Y169559D01*
X454924Y169559D01*
X454918Y169561D01*
X454801Y169558D01*
X454684Y169557D01*
X454677Y169555D01*
X454672Y169554D01*
X454655Y169548D01*
X454523Y169510D01*
X452653Y168735D01*
X449047Y168735D01*
X445715Y170115D01*
X443165Y172665D01*
X441785Y175997D01*
X441785Y179603D01*
X443165Y182935D01*
X445715Y185485D01*
X449047Y186865D01*
X452653Y186865D01*
X455985Y185485D01*
X458535Y182935D01*
X459915Y179603D01*
X459915Y175997D01*
X459140Y174127D01*
X459121Y174044D01*
X459116Y174034D01*
X459114Y174017D01*
X459113Y174013D01*
X459085Y173900D01*
X459085Y173893D01*
X459084Y173887D01*
X459091Y173809D01*
X459089Y173790D01*
X459096Y173760D01*
X459104Y173655D01*
X459106Y173649D01*
X459107Y173642D01*
X459135Y173580D01*
X459141Y173550D01*
X459166Y173508D01*
X459200Y173428D01*
X459205Y173422D01*
X459207Y173418D01*
X459220Y173404D01*
X459255Y173360D01*
X459268Y173339D01*
X459282Y173327D01*
X459305Y173297D01*
X492348Y140255D01*
X492364Y140243D01*
X492376Y140227D01*
X492464Y140171D01*
X492547Y140111D01*
X492566Y140105D01*
X492583Y140094D01*
X492684Y140069D01*
X492783Y140039D01*
X492802Y140039D01*
X492822Y140034D01*
X492925Y140042D01*
X493028Y140045D01*
X493047Y140052D01*
X493067Y140054D01*
X493162Y140094D01*
X493259Y140130D01*
X493275Y140142D01*
X493293Y140150D01*
X493424Y140255D01*
X526182Y173013D01*
X526235Y173087D01*
X526295Y173156D01*
X526307Y173186D01*
X526326Y173212D01*
X526353Y173299D01*
X526387Y173384D01*
X526391Y173425D01*
X526398Y173447D01*
X526397Y173480D01*
X526405Y173551D01*
X526405Y191658D01*
X528265Y193518D01*
X576982Y242235D01*
X577035Y242309D01*
X577095Y242378D01*
X577107Y242408D01*
X577126Y242434D01*
X577153Y242521D01*
X577187Y242606D01*
X577191Y242647D01*
X577198Y242669D01*
X577197Y242702D01*
X577205Y242773D01*
X577205Y244214D01*
X577202Y244234D01*
X577204Y244253D01*
X577182Y244355D01*
X577166Y244457D01*
X577156Y244474D01*
X577152Y244494D01*
X577099Y244583D01*
X577050Y244674D01*
X577036Y244688D01*
X577026Y244705D01*
X576947Y244772D01*
X576872Y244844D01*
X576854Y244852D01*
X576839Y244865D01*
X576743Y244904D01*
X576649Y244947D01*
X576629Y244949D01*
X576611Y244957D01*
X576444Y244975D01*
X572868Y244975D01*
X572038Y245805D01*
X572022Y245817D01*
X572010Y245833D01*
X571922Y245889D01*
X571839Y245949D01*
X571820Y245955D01*
X571803Y245966D01*
X571702Y245991D01*
X571603Y246021D01*
X571584Y246021D01*
X571564Y246026D01*
X571461Y246018D01*
X571358Y246015D01*
X571339Y246008D01*
X571319Y246007D01*
X571224Y245966D01*
X571127Y245931D01*
X571111Y245918D01*
X571093Y245910D01*
X570962Y245805D01*
X570132Y244975D01*
X555868Y244975D01*
X554975Y245868D01*
X554975Y262132D01*
X555868Y263025D01*
X559444Y263025D01*
X559464Y263028D01*
X559483Y263026D01*
X559585Y263048D01*
X559687Y263064D01*
X559704Y263074D01*
X559724Y263078D01*
X559813Y263131D01*
X559904Y263180D01*
X559918Y263194D01*
X559935Y263204D01*
X560002Y263283D01*
X560074Y263358D01*
X560082Y263376D01*
X560095Y263391D01*
X560134Y263487D01*
X560177Y263581D01*
X560179Y263601D01*
X560187Y263619D01*
X560205Y263786D01*
X560205Y295910D01*
X560202Y295930D01*
X560204Y295949D01*
X560182Y296051D01*
X560166Y296153D01*
X560156Y296170D01*
X560152Y296190D01*
X560099Y296279D01*
X560050Y296370D01*
X560036Y296384D01*
X560026Y296401D01*
X559947Y296468D01*
X559872Y296540D01*
X559854Y296548D01*
X559839Y296561D01*
X559743Y296600D01*
X559649Y296643D01*
X559629Y296645D01*
X559611Y296653D01*
X559444Y296671D01*
X555433Y296671D01*
X550671Y301433D01*
X550671Y308167D01*
X555433Y312929D01*
X562167Y312929D01*
X566929Y308167D01*
X566929Y301433D01*
X566018Y300522D01*
X565965Y300448D01*
X565905Y300379D01*
X565893Y300348D01*
X565874Y300322D01*
X565847Y300235D01*
X565813Y300150D01*
X565809Y300109D01*
X565802Y300087D01*
X565803Y300055D01*
X565795Y299984D01*
X565795Y263786D01*
X565798Y263766D01*
X565796Y263747D01*
X565818Y263645D01*
X565834Y263543D01*
X565844Y263526D01*
X565848Y263506D01*
X565901Y263417D01*
X565950Y263326D01*
X565964Y263312D01*
X565974Y263295D01*
X566053Y263228D01*
X566128Y263156D01*
X566146Y263148D01*
X566161Y263135D01*
X566257Y263096D01*
X566351Y263053D01*
X566371Y263051D01*
X566389Y263043D01*
X566556Y263025D01*
X570132Y263025D01*
X570962Y262195D01*
X570978Y262183D01*
X570990Y262167D01*
X571078Y262111D01*
X571161Y262051D01*
X571180Y262045D01*
X571197Y262034D01*
X571298Y262009D01*
X571397Y261979D01*
X571416Y261979D01*
X571436Y261974D01*
X571539Y261982D01*
X571642Y261985D01*
X571661Y261992D01*
X571681Y261993D01*
X571776Y262034D01*
X571873Y262069D01*
X571889Y262082D01*
X571907Y262090D01*
X572038Y262195D01*
X572868Y263025D01*
X587132Y263025D01*
X588025Y262132D01*
X588025Y245868D01*
X587132Y244975D01*
X583556Y244975D01*
X583536Y244972D01*
X583517Y244974D01*
X583415Y244952D01*
X583313Y244936D01*
X583296Y244926D01*
X583276Y244922D01*
X583187Y244869D01*
X583096Y244820D01*
X583082Y244806D01*
X583065Y244796D01*
X582998Y244717D01*
X582926Y244642D01*
X582918Y244624D01*
X582905Y244609D01*
X582866Y244513D01*
X582823Y244419D01*
X582821Y244399D01*
X582813Y244381D01*
X582795Y244214D01*
X582795Y240142D01*
X580935Y238282D01*
X532218Y189565D01*
X532172Y189501D01*
X532154Y189483D01*
X532150Y189475D01*
X532105Y189422D01*
X532093Y189392D01*
X532074Y189366D01*
X532047Y189279D01*
X532013Y189194D01*
X532009Y189153D01*
X532002Y189131D01*
X532003Y189098D01*
X531995Y189027D01*
X531995Y170920D01*
X495904Y134829D01*
X494044Y132969D01*
X491728Y132969D01*
G37*
%LPD*%
%LPC*%
G36*
X220447Y41735D02*
X220447Y41735D01*
X217115Y43115D01*
X214565Y45665D01*
X213791Y47535D01*
X213729Y47635D01*
X213669Y47735D01*
X213664Y47739D01*
X213661Y47744D01*
X213571Y47819D01*
X213482Y47895D01*
X213476Y47897D01*
X213472Y47901D01*
X213363Y47943D01*
X213254Y47987D01*
X213247Y47988D01*
X213242Y47989D01*
X213224Y47990D01*
X213087Y48005D01*
X171442Y48005D01*
X82764Y136684D01*
X82690Y136737D01*
X82620Y136796D01*
X82590Y136808D01*
X82564Y136827D01*
X82477Y136854D01*
X82392Y136888D01*
X82351Y136893D01*
X82329Y136900D01*
X82297Y136899D01*
X82226Y136907D01*
X68086Y136906D01*
X68066Y136903D01*
X68047Y136905D01*
X67945Y136883D01*
X67843Y136866D01*
X67826Y136857D01*
X67806Y136853D01*
X67717Y136799D01*
X67626Y136751D01*
X67612Y136737D01*
X67595Y136726D01*
X67528Y136647D01*
X67456Y136573D01*
X67448Y136555D01*
X67435Y136539D01*
X67396Y136443D01*
X67353Y136350D01*
X67351Y136330D01*
X67343Y136311D01*
X67325Y136145D01*
X67325Y131568D01*
X66432Y130675D01*
X52168Y130675D01*
X51338Y131505D01*
X51322Y131517D01*
X51310Y131533D01*
X51222Y131589D01*
X51139Y131649D01*
X51120Y131655D01*
X51103Y131666D01*
X51002Y131691D01*
X50903Y131721D01*
X50884Y131721D01*
X50864Y131726D01*
X50761Y131718D01*
X50658Y131715D01*
X50639Y131708D01*
X50619Y131707D01*
X50524Y131666D01*
X50427Y131631D01*
X50411Y131618D01*
X50393Y131610D01*
X50262Y131505D01*
X49432Y130675D01*
X35168Y130675D01*
X34275Y131568D01*
X34275Y147832D01*
X35168Y148725D01*
X38744Y148725D01*
X38764Y148728D01*
X38783Y148726D01*
X38885Y148748D01*
X38987Y148764D01*
X39004Y148774D01*
X39024Y148778D01*
X39113Y148831D01*
X39204Y148880D01*
X39218Y148894D01*
X39235Y148904D01*
X39302Y148983D01*
X39374Y149058D01*
X39382Y149076D01*
X39395Y149091D01*
X39434Y149187D01*
X39477Y149281D01*
X39479Y149301D01*
X39487Y149319D01*
X39505Y149486D01*
X39505Y181610D01*
X39502Y181630D01*
X39504Y181649D01*
X39482Y181751D01*
X39466Y181853D01*
X39456Y181870D01*
X39452Y181890D01*
X39399Y181979D01*
X39350Y182070D01*
X39336Y182084D01*
X39326Y182101D01*
X39247Y182168D01*
X39172Y182240D01*
X39154Y182248D01*
X39139Y182261D01*
X39043Y182300D01*
X38949Y182343D01*
X38929Y182345D01*
X38911Y182353D01*
X38744Y182371D01*
X34733Y182371D01*
X29971Y187133D01*
X29971Y193867D01*
X34733Y198629D01*
X41467Y198629D01*
X46229Y193867D01*
X46229Y187133D01*
X45318Y186222D01*
X45265Y186148D01*
X45205Y186079D01*
X45193Y186048D01*
X45174Y186022D01*
X45147Y185935D01*
X45113Y185850D01*
X45109Y185809D01*
X45102Y185787D01*
X45103Y185755D01*
X45095Y185684D01*
X45095Y149486D01*
X45098Y149466D01*
X45096Y149447D01*
X45118Y149345D01*
X45134Y149243D01*
X45144Y149226D01*
X45148Y149206D01*
X45201Y149117D01*
X45250Y149026D01*
X45264Y149012D01*
X45274Y148995D01*
X45353Y148928D01*
X45428Y148856D01*
X45446Y148848D01*
X45461Y148835D01*
X45557Y148796D01*
X45651Y148753D01*
X45671Y148751D01*
X45689Y148743D01*
X45856Y148725D01*
X49432Y148725D01*
X50262Y147895D01*
X50278Y147883D01*
X50290Y147867D01*
X50378Y147811D01*
X50461Y147751D01*
X50480Y147745D01*
X50497Y147734D01*
X50598Y147709D01*
X50697Y147679D01*
X50716Y147679D01*
X50736Y147674D01*
X50839Y147682D01*
X50942Y147685D01*
X50961Y147692D01*
X50981Y147693D01*
X51076Y147734D01*
X51173Y147769D01*
X51189Y147782D01*
X51207Y147790D01*
X51338Y147895D01*
X52168Y148725D01*
X66432Y148725D01*
X67325Y147832D01*
X67325Y143257D01*
X67328Y143237D01*
X67326Y143217D01*
X67348Y143116D01*
X67364Y143014D01*
X67374Y142996D01*
X67378Y142977D01*
X67431Y142888D01*
X67480Y142796D01*
X67494Y142783D01*
X67504Y142766D01*
X67583Y142698D01*
X67658Y142627D01*
X67676Y142619D01*
X67691Y142606D01*
X67787Y142567D01*
X67881Y142523D01*
X67901Y142521D01*
X67919Y142514D01*
X68086Y142495D01*
X82225Y142496D01*
X82226Y142496D01*
X83675Y142496D01*
X84856Y142496D01*
X85671Y141682D01*
X86716Y140637D01*
X86716Y140636D01*
X173535Y53818D01*
X173609Y53765D01*
X173678Y53705D01*
X173708Y53693D01*
X173734Y53674D01*
X173821Y53647D01*
X173906Y53613D01*
X173947Y53609D01*
X173969Y53602D01*
X174002Y53603D01*
X174073Y53595D01*
X213087Y53595D01*
X213202Y53614D01*
X213318Y53631D01*
X213324Y53633D01*
X213330Y53634D01*
X213432Y53689D01*
X213538Y53742D01*
X213542Y53747D01*
X213548Y53750D01*
X213627Y53834D01*
X213710Y53918D01*
X213713Y53924D01*
X213717Y53928D01*
X213725Y53945D01*
X213791Y54065D01*
X214565Y55935D01*
X217115Y58485D01*
X220447Y59865D01*
X224053Y59865D01*
X227385Y58485D01*
X229935Y55935D01*
X231315Y52603D01*
X231315Y48997D01*
X229935Y45665D01*
X227385Y43115D01*
X224053Y41735D01*
X220447Y41735D01*
G37*
%LPD*%
%LPC*%
G36*
X449047Y41735D02*
X449047Y41735D01*
X445715Y43115D01*
X443165Y45665D01*
X441785Y48997D01*
X441785Y52603D01*
X443165Y55935D01*
X445715Y58485D01*
X449047Y59865D01*
X452653Y59865D01*
X455985Y58485D01*
X458535Y55935D01*
X459309Y54065D01*
X459371Y53965D01*
X459431Y53865D01*
X459436Y53861D01*
X459439Y53856D01*
X459529Y53781D01*
X459618Y53705D01*
X459624Y53703D01*
X459628Y53699D01*
X459737Y53657D01*
X459846Y53613D01*
X459853Y53612D01*
X459858Y53611D01*
X459876Y53610D01*
X460013Y53595D01*
X477927Y53595D01*
X478017Y53609D01*
X478108Y53617D01*
X478138Y53629D01*
X478170Y53634D01*
X478250Y53677D01*
X478334Y53713D01*
X478366Y53739D01*
X478387Y53750D01*
X478409Y53773D01*
X478465Y53818D01*
X549362Y124715D01*
X576444Y124715D01*
X576464Y124718D01*
X576483Y124716D01*
X576585Y124738D01*
X576687Y124754D01*
X576704Y124764D01*
X576724Y124768D01*
X576813Y124821D01*
X576904Y124870D01*
X576918Y124884D01*
X576935Y124894D01*
X577002Y124973D01*
X577074Y125048D01*
X577082Y125066D01*
X577095Y125081D01*
X577134Y125177D01*
X577177Y125271D01*
X577179Y125291D01*
X577187Y125309D01*
X577205Y125476D01*
X577205Y129914D01*
X577202Y129934D01*
X577204Y129953D01*
X577182Y130055D01*
X577166Y130157D01*
X577156Y130174D01*
X577152Y130194D01*
X577099Y130283D01*
X577050Y130374D01*
X577036Y130388D01*
X577026Y130405D01*
X576947Y130472D01*
X576872Y130544D01*
X576854Y130552D01*
X576839Y130565D01*
X576743Y130604D01*
X576649Y130647D01*
X576629Y130649D01*
X576611Y130657D01*
X576444Y130675D01*
X572868Y130675D01*
X572038Y131505D01*
X572022Y131517D01*
X572010Y131533D01*
X571922Y131589D01*
X571839Y131649D01*
X571820Y131655D01*
X571803Y131666D01*
X571702Y131691D01*
X571603Y131721D01*
X571584Y131721D01*
X571564Y131726D01*
X571461Y131718D01*
X571358Y131715D01*
X571339Y131708D01*
X571319Y131707D01*
X571224Y131666D01*
X571127Y131631D01*
X571111Y131618D01*
X571093Y131610D01*
X570962Y131505D01*
X570132Y130675D01*
X555868Y130675D01*
X554975Y131568D01*
X554975Y147832D01*
X555868Y148725D01*
X559444Y148725D01*
X559464Y148728D01*
X559483Y148726D01*
X559585Y148748D01*
X559687Y148764D01*
X559704Y148774D01*
X559724Y148778D01*
X559813Y148831D01*
X559904Y148880D01*
X559918Y148894D01*
X559935Y148904D01*
X560002Y148983D01*
X560074Y149058D01*
X560082Y149076D01*
X560095Y149091D01*
X560134Y149187D01*
X560177Y149281D01*
X560179Y149301D01*
X560187Y149319D01*
X560205Y149486D01*
X560205Y181610D01*
X560202Y181630D01*
X560204Y181649D01*
X560182Y181751D01*
X560166Y181853D01*
X560156Y181870D01*
X560152Y181890D01*
X560099Y181979D01*
X560050Y182070D01*
X560036Y182084D01*
X560026Y182101D01*
X559947Y182168D01*
X559872Y182240D01*
X559854Y182248D01*
X559839Y182261D01*
X559743Y182300D01*
X559649Y182343D01*
X559629Y182345D01*
X559611Y182353D01*
X559444Y182371D01*
X555433Y182371D01*
X550671Y187133D01*
X550671Y193867D01*
X555433Y198629D01*
X562167Y198629D01*
X566929Y193867D01*
X566929Y187133D01*
X566018Y186222D01*
X565965Y186148D01*
X565905Y186079D01*
X565893Y186048D01*
X565874Y186022D01*
X565847Y185935D01*
X565813Y185850D01*
X565809Y185809D01*
X565802Y185787D01*
X565803Y185755D01*
X565795Y185684D01*
X565795Y149486D01*
X565798Y149466D01*
X565796Y149447D01*
X565818Y149345D01*
X565834Y149243D01*
X565844Y149226D01*
X565848Y149206D01*
X565901Y149117D01*
X565950Y149026D01*
X565964Y149012D01*
X565974Y148995D01*
X566053Y148928D01*
X566128Y148856D01*
X566146Y148848D01*
X566161Y148835D01*
X566257Y148796D01*
X566351Y148753D01*
X566371Y148751D01*
X566389Y148743D01*
X566556Y148725D01*
X570132Y148725D01*
X570962Y147895D01*
X570978Y147883D01*
X570990Y147867D01*
X571078Y147811D01*
X571161Y147751D01*
X571180Y147745D01*
X571197Y147734D01*
X571298Y147709D01*
X571397Y147679D01*
X571416Y147679D01*
X571436Y147674D01*
X571539Y147682D01*
X571642Y147685D01*
X571661Y147692D01*
X571681Y147693D01*
X571776Y147734D01*
X571873Y147769D01*
X571889Y147782D01*
X571907Y147790D01*
X572038Y147895D01*
X572868Y148725D01*
X587132Y148725D01*
X588025Y147832D01*
X588025Y131568D01*
X587132Y130675D01*
X583556Y130675D01*
X583536Y130672D01*
X583517Y130674D01*
X583415Y130652D01*
X583313Y130636D01*
X583296Y130626D01*
X583276Y130622D01*
X583187Y130569D01*
X583096Y130520D01*
X583082Y130506D01*
X583065Y130496D01*
X582998Y130417D01*
X582926Y130342D01*
X582918Y130324D01*
X582905Y130309D01*
X582866Y130213D01*
X582823Y130119D01*
X582821Y130099D01*
X582813Y130081D01*
X582795Y129914D01*
X582795Y120762D01*
X581158Y119125D01*
X551993Y119125D01*
X551903Y119111D01*
X551812Y119103D01*
X551782Y119091D01*
X551750Y119086D01*
X551670Y119043D01*
X551586Y119007D01*
X551554Y118981D01*
X551533Y118970D01*
X551511Y118947D01*
X551455Y118902D01*
X480558Y48005D01*
X460013Y48005D01*
X459898Y47986D01*
X459782Y47969D01*
X459776Y47967D01*
X459770Y47966D01*
X459667Y47911D01*
X459562Y47858D01*
X459558Y47853D01*
X459553Y47850D01*
X459473Y47766D01*
X459390Y47682D01*
X459387Y47676D01*
X459383Y47672D01*
X459375Y47655D01*
X459309Y47535D01*
X458535Y45665D01*
X455985Y43115D01*
X452653Y41735D01*
X449047Y41735D01*
G37*
%LPD*%
%LPC*%
G36*
X175997Y168735D02*
X175997Y168735D01*
X172665Y170115D01*
X170115Y172665D01*
X168735Y175997D01*
X168735Y179603D01*
X170115Y182935D01*
X172665Y185485D01*
X174535Y186259D01*
X174635Y186321D01*
X174735Y186381D01*
X174739Y186386D01*
X174744Y186389D01*
X174819Y186479D01*
X174895Y186568D01*
X174897Y186574D01*
X174901Y186578D01*
X174943Y186687D01*
X174987Y186796D01*
X174988Y186803D01*
X174989Y186808D01*
X174990Y186826D01*
X175005Y186963D01*
X175005Y194037D01*
X174986Y194152D01*
X174969Y194268D01*
X174967Y194274D01*
X174966Y194280D01*
X174911Y194383D01*
X174858Y194488D01*
X174853Y194492D01*
X174850Y194497D01*
X174766Y194577D01*
X174682Y194660D01*
X174676Y194663D01*
X174672Y194667D01*
X174655Y194675D01*
X174535Y194741D01*
X172665Y195515D01*
X170115Y198065D01*
X168735Y201397D01*
X168735Y205003D01*
X170115Y208335D01*
X172665Y210885D01*
X175997Y212265D01*
X179603Y212265D01*
X182935Y210885D01*
X185485Y208335D01*
X186865Y205003D01*
X186865Y201397D01*
X185485Y198065D01*
X182935Y195515D01*
X181065Y194741D01*
X180965Y194679D01*
X180865Y194619D01*
X180861Y194614D01*
X180856Y194611D01*
X180781Y194521D01*
X180705Y194432D01*
X180703Y194426D01*
X180699Y194422D01*
X180657Y194313D01*
X180613Y194204D01*
X180612Y194197D01*
X180611Y194192D01*
X180610Y194174D01*
X180595Y194037D01*
X180595Y186963D01*
X180614Y186848D01*
X180631Y186732D01*
X180633Y186726D01*
X180634Y186720D01*
X180689Y186617D01*
X180742Y186512D01*
X180747Y186508D01*
X180750Y186503D01*
X180834Y186423D01*
X180918Y186340D01*
X180924Y186337D01*
X180928Y186333D01*
X180945Y186325D01*
X181065Y186259D01*
X182935Y185485D01*
X185485Y182935D01*
X186865Y179603D01*
X186865Y175997D01*
X185485Y172665D01*
X182935Y170115D01*
X179603Y168735D01*
X175997Y168735D01*
G37*
%LPD*%
%LPC*%
G36*
X480797Y486235D02*
X480797Y486235D01*
X477465Y487615D01*
X474915Y490165D01*
X473535Y493497D01*
X473535Y497103D01*
X474915Y500435D01*
X477465Y502985D01*
X480797Y504365D01*
X484403Y504365D01*
X487735Y502985D01*
X490285Y500435D01*
X491665Y497103D01*
X491665Y493497D01*
X490285Y490165D01*
X487735Y487615D01*
X484403Y486235D01*
X480797Y486235D01*
G37*
%LPD*%
%LPC*%
G36*
X480797Y460835D02*
X480797Y460835D01*
X477465Y462215D01*
X474915Y464765D01*
X473535Y468097D01*
X473535Y471703D01*
X474915Y475035D01*
X477465Y477585D01*
X480797Y478965D01*
X484403Y478965D01*
X487735Y477585D01*
X490285Y475035D01*
X491665Y471703D01*
X491665Y468097D01*
X490285Y464765D01*
X487735Y462215D01*
X484403Y460835D01*
X480797Y460835D01*
G37*
%LPD*%
%LPC*%
G36*
X220447Y270335D02*
X220447Y270335D01*
X217115Y271715D01*
X214565Y274265D01*
X213185Y277597D01*
X213185Y281203D01*
X214565Y284535D01*
X217115Y287085D01*
X220447Y288465D01*
X224053Y288465D01*
X227385Y287085D01*
X229935Y284535D01*
X231315Y281203D01*
X231315Y277597D01*
X229935Y274265D01*
X227385Y271715D01*
X224053Y270335D01*
X220447Y270335D01*
G37*
%LPD*%
%LPC*%
G36*
X449047Y270335D02*
X449047Y270335D01*
X445715Y271715D01*
X443165Y274265D01*
X441785Y277597D01*
X441785Y281203D01*
X443165Y284535D01*
X445715Y287085D01*
X449047Y288465D01*
X452653Y288465D01*
X455985Y287085D01*
X458535Y284535D01*
X459915Y281203D01*
X459915Y277597D01*
X458535Y274265D01*
X455985Y271715D01*
X452653Y270335D01*
X449047Y270335D01*
G37*
%LPD*%
%LPC*%
G36*
X449047Y117935D02*
X449047Y117935D01*
X445715Y119315D01*
X443165Y121865D01*
X441785Y125197D01*
X441785Y128803D01*
X443165Y132135D01*
X445715Y134685D01*
X449047Y136065D01*
X452653Y136065D01*
X455985Y134685D01*
X458535Y132135D01*
X459915Y128803D01*
X459915Y125197D01*
X458535Y121865D01*
X455985Y119315D01*
X452653Y117935D01*
X449047Y117935D01*
G37*
%LPD*%
%LPC*%
G36*
X220447Y244935D02*
X220447Y244935D01*
X217115Y246315D01*
X214565Y248865D01*
X213185Y252197D01*
X213185Y255803D01*
X214565Y259135D01*
X217115Y261685D01*
X220447Y263065D01*
X224053Y263065D01*
X227385Y261685D01*
X229935Y259135D01*
X231315Y255803D01*
X231315Y252197D01*
X229935Y248865D01*
X227385Y246315D01*
X224053Y244935D01*
X220447Y244935D01*
G37*
%LPD*%
%LPC*%
G36*
X449047Y244935D02*
X449047Y244935D01*
X445715Y246315D01*
X443165Y248865D01*
X441785Y252197D01*
X441785Y255803D01*
X443165Y259135D01*
X445715Y261685D01*
X449047Y263065D01*
X452653Y263065D01*
X455985Y261685D01*
X458535Y259135D01*
X459915Y255803D01*
X459915Y252197D01*
X458535Y248865D01*
X455985Y246315D01*
X452653Y244935D01*
X449047Y244935D01*
G37*
%LPD*%
%LPC*%
G36*
X480797Y435435D02*
X480797Y435435D01*
X477465Y436815D01*
X474915Y439365D01*
X473535Y442697D01*
X473535Y446303D01*
X474915Y449635D01*
X477465Y452185D01*
X480797Y453565D01*
X484403Y453565D01*
X487735Y452185D01*
X490285Y449635D01*
X491665Y446303D01*
X491665Y442697D01*
X490285Y439365D01*
X487735Y436815D01*
X484403Y435435D01*
X480797Y435435D01*
G37*
%LPD*%
%LPC*%
G36*
X220447Y117935D02*
X220447Y117935D01*
X217115Y119315D01*
X214565Y121865D01*
X213185Y125197D01*
X213185Y128803D01*
X214565Y132135D01*
X217115Y134685D01*
X220447Y136065D01*
X224053Y136065D01*
X227385Y134685D01*
X229935Y132135D01*
X231315Y128803D01*
X231315Y125197D01*
X229935Y121865D01*
X227385Y119315D01*
X224053Y117935D01*
X220447Y117935D01*
G37*
%LPD*%
%LPC*%
G36*
X449047Y143335D02*
X449047Y143335D01*
X445715Y144715D01*
X443165Y147265D01*
X441785Y150597D01*
X441785Y154203D01*
X443165Y157535D01*
X445715Y160085D01*
X449047Y161465D01*
X452653Y161465D01*
X455985Y160085D01*
X458535Y157535D01*
X459915Y154203D01*
X459915Y150597D01*
X458535Y147265D01*
X455985Y144715D01*
X452653Y143335D01*
X449047Y143335D01*
G37*
%LPD*%
%LPC*%
G36*
X220447Y143335D02*
X220447Y143335D01*
X217115Y144715D01*
X214565Y147265D01*
X213185Y150597D01*
X213185Y154203D01*
X214565Y157535D01*
X217115Y160085D01*
X220447Y161465D01*
X224053Y161465D01*
X227385Y160085D01*
X229935Y157535D01*
X231315Y154203D01*
X231315Y150597D01*
X229935Y147265D01*
X227385Y144715D01*
X224053Y143335D01*
X220447Y143335D01*
G37*
%LPD*%
%LPC*%
G36*
X175997Y143335D02*
X175997Y143335D01*
X172665Y144715D01*
X170115Y147265D01*
X168735Y150597D01*
X168735Y154203D01*
X170115Y157535D01*
X172665Y160085D01*
X175997Y161465D01*
X179603Y161465D01*
X182935Y160085D01*
X185485Y157535D01*
X186865Y154203D01*
X186865Y150597D01*
X185485Y147265D01*
X182935Y144715D01*
X179603Y143335D01*
X175997Y143335D01*
G37*
%LPD*%
%LPC*%
G36*
X150597Y219535D02*
X150597Y219535D01*
X147265Y220915D01*
X144715Y223465D01*
X143335Y226797D01*
X143335Y230403D01*
X144715Y233735D01*
X147265Y236285D01*
X150597Y237665D01*
X154203Y237665D01*
X157535Y236285D01*
X160085Y233735D01*
X161465Y230403D01*
X161465Y226797D01*
X160085Y223465D01*
X157535Y220915D01*
X154203Y219535D01*
X150597Y219535D01*
G37*
%LPD*%
%LPC*%
G36*
X220447Y295735D02*
X220447Y295735D01*
X217115Y297115D01*
X214565Y299665D01*
X213185Y302997D01*
X213185Y306603D01*
X214565Y309935D01*
X217115Y312485D01*
X220447Y313865D01*
X224053Y313865D01*
X227385Y312485D01*
X229935Y309935D01*
X231315Y306603D01*
X231315Y302997D01*
X229935Y299665D01*
X227385Y297115D01*
X224053Y295735D01*
X220447Y295735D01*
G37*
%LPD*%
%LPC*%
G36*
X487147Y149685D02*
X487147Y149685D01*
X483815Y151065D01*
X481265Y153615D01*
X479885Y156947D01*
X479885Y160553D01*
X481265Y163885D01*
X483815Y166435D01*
X487147Y167815D01*
X490753Y167815D01*
X494085Y166435D01*
X496635Y163885D01*
X498015Y160553D01*
X498015Y156947D01*
X496635Y153615D01*
X494085Y151065D01*
X490753Y149685D01*
X487147Y149685D01*
G37*
%LPD*%
%LPC*%
G36*
X150597Y168735D02*
X150597Y168735D01*
X147265Y170115D01*
X144715Y172665D01*
X143335Y175997D01*
X143335Y179603D01*
X144715Y182935D01*
X147265Y185485D01*
X150597Y186865D01*
X154203Y186865D01*
X157535Y185485D01*
X160085Y182935D01*
X161465Y179603D01*
X161465Y175997D01*
X160085Y172665D01*
X157535Y170115D01*
X154203Y168735D01*
X150597Y168735D01*
G37*
%LPD*%
%LPC*%
G36*
X487147Y175085D02*
X487147Y175085D01*
X483815Y176465D01*
X481265Y179015D01*
X479885Y182347D01*
X479885Y185953D01*
X481265Y189285D01*
X483815Y191835D01*
X487147Y193215D01*
X490753Y193215D01*
X494085Y191835D01*
X496635Y189285D01*
X498015Y185953D01*
X498015Y182347D01*
X496635Y179015D01*
X494085Y176465D01*
X490753Y175085D01*
X487147Y175085D01*
G37*
%LPD*%
%LPC*%
G36*
X449047Y67135D02*
X449047Y67135D01*
X445715Y68515D01*
X443165Y71065D01*
X441785Y74397D01*
X441785Y78003D01*
X443165Y81335D01*
X445715Y83885D01*
X449047Y85265D01*
X452653Y85265D01*
X455985Y83885D01*
X458535Y81335D01*
X459915Y78003D01*
X459915Y74397D01*
X458535Y71065D01*
X455985Y68515D01*
X452653Y67135D01*
X449047Y67135D01*
G37*
%LPD*%
%LPC*%
G36*
X449047Y219535D02*
X449047Y219535D01*
X445715Y220915D01*
X443165Y223465D01*
X441785Y226797D01*
X441785Y230403D01*
X443165Y233735D01*
X445715Y236285D01*
X449047Y237665D01*
X452653Y237665D01*
X455985Y236285D01*
X458535Y233735D01*
X459915Y230403D01*
X459915Y226797D01*
X458535Y223465D01*
X455985Y220915D01*
X452653Y219535D01*
X449047Y219535D01*
G37*
%LPD*%
%LPC*%
G36*
X449047Y194135D02*
X449047Y194135D01*
X445715Y195515D01*
X443165Y198065D01*
X441785Y201397D01*
X441785Y205003D01*
X443165Y208335D01*
X445715Y210885D01*
X449047Y212265D01*
X452653Y212265D01*
X455985Y210885D01*
X458535Y208335D01*
X459915Y205003D01*
X459915Y201397D01*
X458535Y198065D01*
X455985Y195515D01*
X452653Y194135D01*
X449047Y194135D01*
G37*
%LPD*%
%LPC*%
G36*
X150597Y194135D02*
X150597Y194135D01*
X147265Y195515D01*
X144715Y198065D01*
X143335Y201397D01*
X143335Y205003D01*
X144715Y208335D01*
X147265Y210885D01*
X150597Y212265D01*
X154203Y212265D01*
X157535Y210885D01*
X160085Y208335D01*
X161465Y205003D01*
X161465Y201397D01*
X160085Y198065D01*
X157535Y195515D01*
X154203Y194135D01*
X150597Y194135D01*
G37*
%LPD*%
%LPC*%
G36*
X220447Y194135D02*
X220447Y194135D01*
X217115Y195515D01*
X214565Y198065D01*
X213185Y201397D01*
X213185Y205003D01*
X214565Y208335D01*
X217115Y210885D01*
X220447Y212265D01*
X224053Y212265D01*
X227385Y210885D01*
X229935Y208335D01*
X231315Y205003D01*
X231315Y201397D01*
X229935Y198065D01*
X227385Y195515D01*
X224053Y194135D01*
X220447Y194135D01*
G37*
%LPD*%
%LPC*%
G36*
X220447Y16335D02*
X220447Y16335D01*
X217115Y17715D01*
X214565Y20265D01*
X213185Y23597D01*
X213185Y27203D01*
X214565Y30535D01*
X217115Y33085D01*
X220447Y34465D01*
X224053Y34465D01*
X227385Y33085D01*
X229935Y30535D01*
X231315Y27203D01*
X231315Y23597D01*
X229935Y20265D01*
X227385Y17715D01*
X224053Y16335D01*
X220447Y16335D01*
G37*
%LPD*%
%LPC*%
G36*
X184923Y458723D02*
X184923Y458723D01*
X184923Y472389D01*
X186969Y472065D01*
X189250Y471324D01*
X191388Y470235D01*
X193329Y468825D01*
X195025Y467129D01*
X196435Y465188D01*
X197524Y463050D01*
X198265Y460769D01*
X198589Y458723D01*
X184923Y458723D01*
G37*
%LPD*%
%LPC*%
G36*
X184923Y547623D02*
X184923Y547623D01*
X184923Y561289D01*
X186969Y560965D01*
X189250Y560224D01*
X191388Y559135D01*
X193329Y557725D01*
X195025Y556029D01*
X196435Y554088D01*
X197524Y551950D01*
X198265Y549669D01*
X198589Y547623D01*
X184923Y547623D01*
G37*
%LPD*%
%LPC*%
G36*
X168211Y458723D02*
X168211Y458723D01*
X168535Y460769D01*
X169276Y463050D01*
X170365Y465188D01*
X171775Y467129D01*
X173471Y468825D01*
X175412Y470235D01*
X177550Y471324D01*
X179831Y472065D01*
X181877Y472389D01*
X181877Y458723D01*
X168211Y458723D01*
G37*
%LPD*%
%LPC*%
G36*
X168211Y547623D02*
X168211Y547623D01*
X168535Y549669D01*
X169276Y551950D01*
X170365Y554088D01*
X171775Y556029D01*
X173471Y557725D01*
X175412Y559135D01*
X177550Y560224D01*
X179831Y560965D01*
X181877Y561289D01*
X181877Y547623D01*
X168211Y547623D01*
G37*
%LPD*%
%LPC*%
G36*
X184923Y544577D02*
X184923Y544577D01*
X198589Y544577D01*
X198265Y542531D01*
X197524Y540250D01*
X196435Y538112D01*
X195025Y536171D01*
X193329Y534475D01*
X191388Y533065D01*
X189250Y531976D01*
X186969Y531235D01*
X184923Y530911D01*
X184923Y544577D01*
G37*
%LPD*%
%LPC*%
G36*
X184923Y455677D02*
X184923Y455677D01*
X198589Y455677D01*
X198265Y453631D01*
X197524Y451350D01*
X196435Y449212D01*
X195025Y447271D01*
X193329Y445575D01*
X191388Y444165D01*
X189250Y443076D01*
X186969Y442335D01*
X184923Y442011D01*
X184923Y455677D01*
G37*
%LPD*%
%LPC*%
G36*
X179831Y442335D02*
X179831Y442335D01*
X177550Y443076D01*
X175412Y444165D01*
X173471Y445575D01*
X171775Y447271D01*
X170365Y449212D01*
X169276Y451350D01*
X168535Y453631D01*
X168211Y455677D01*
X181877Y455677D01*
X181877Y442011D01*
X179831Y442335D01*
G37*
%LPD*%
%LPC*%
G36*
X179831Y531235D02*
X179831Y531235D01*
X177550Y531976D01*
X175412Y533065D01*
X173471Y534475D01*
X171775Y536171D01*
X170365Y538112D01*
X169276Y540250D01*
X168535Y542531D01*
X168211Y544577D01*
X181877Y544577D01*
X181877Y530911D01*
X179831Y531235D01*
G37*
%LPD*%
%LPC*%
G36*
X452373Y26923D02*
X452373Y26923D01*
X452373Y35365D01*
X453211Y35233D01*
X454720Y34742D01*
X456133Y34022D01*
X457417Y33089D01*
X458539Y31967D01*
X459472Y30683D01*
X460192Y29270D01*
X460683Y27761D01*
X460815Y26923D01*
X452373Y26923D01*
G37*
%LPD*%
%LPC*%
G36*
X484123Y547623D02*
X484123Y547623D01*
X484123Y556065D01*
X484961Y555933D01*
X486470Y555442D01*
X487883Y554722D01*
X489167Y553789D01*
X490289Y552667D01*
X491222Y551383D01*
X491942Y549970D01*
X492433Y548461D01*
X492565Y547623D01*
X484123Y547623D01*
G37*
%LPD*%
%LPC*%
G36*
X452373Y23877D02*
X452373Y23877D01*
X460815Y23877D01*
X460683Y23039D01*
X460192Y21530D01*
X459472Y20117D01*
X458539Y18833D01*
X457417Y17711D01*
X456133Y16778D01*
X454720Y16058D01*
X453211Y15567D01*
X452373Y15435D01*
X452373Y23877D01*
G37*
%LPD*%
%LPC*%
G36*
X440885Y26923D02*
X440885Y26923D01*
X441017Y27761D01*
X441508Y29270D01*
X442228Y30683D01*
X443161Y31967D01*
X444283Y33089D01*
X445567Y34022D01*
X446980Y34742D01*
X448489Y35233D01*
X449327Y35365D01*
X449327Y26923D01*
X440885Y26923D01*
G37*
%LPD*%
%LPC*%
G36*
X484123Y544577D02*
X484123Y544577D01*
X492565Y544577D01*
X492433Y543739D01*
X491942Y542230D01*
X491222Y540817D01*
X490289Y539533D01*
X489167Y538411D01*
X487883Y537478D01*
X486470Y536758D01*
X484961Y536267D01*
X484123Y536135D01*
X484123Y544577D01*
G37*
%LPD*%
%LPC*%
G36*
X153923Y252477D02*
X153923Y252477D01*
X162365Y252477D01*
X162233Y251639D01*
X161742Y250130D01*
X161022Y248717D01*
X160089Y247433D01*
X158967Y246311D01*
X157683Y245378D01*
X156270Y244658D01*
X154761Y244167D01*
X153923Y244035D01*
X153923Y252477D01*
G37*
%LPD*%
%LPC*%
G36*
X472635Y547623D02*
X472635Y547623D01*
X472767Y548461D01*
X473258Y549970D01*
X473978Y551383D01*
X474911Y552667D01*
X476033Y553789D01*
X477317Y554722D01*
X478730Y555442D01*
X480239Y555933D01*
X481077Y556065D01*
X481077Y547623D01*
X472635Y547623D01*
G37*
%LPD*%
%LPC*%
G36*
X448489Y15567D02*
X448489Y15567D01*
X446980Y16058D01*
X445567Y16778D01*
X444283Y17711D01*
X443161Y18833D01*
X442228Y20117D01*
X441508Y21530D01*
X441017Y23039D01*
X440885Y23877D01*
X449327Y23877D01*
X449327Y15435D01*
X448489Y15567D01*
G37*
%LPD*%
%LPC*%
G36*
X150039Y244167D02*
X150039Y244167D01*
X148530Y244658D01*
X147117Y245378D01*
X145833Y246311D01*
X144711Y247433D01*
X143778Y248717D01*
X143058Y250130D01*
X142567Y251639D01*
X142435Y252477D01*
X150877Y252477D01*
X150877Y244035D01*
X150039Y244167D01*
G37*
%LPD*%
%LPC*%
G36*
X480239Y536267D02*
X480239Y536267D01*
X478730Y536758D01*
X477317Y537478D01*
X476033Y538411D01*
X474911Y539533D01*
X473978Y540817D01*
X473258Y542230D01*
X472767Y543739D01*
X472635Y544577D01*
X481077Y544577D01*
X481077Y536135D01*
X480239Y536267D01*
G37*
%LPD*%
%LPC*%
G36*
X65023Y433323D02*
X65023Y433323D01*
X65023Y440945D01*
X67288Y440945D01*
X72645Y435588D01*
X72645Y433323D01*
X65023Y433323D01*
G37*
%LPD*%
%LPC*%
G36*
X65023Y306323D02*
X65023Y306323D01*
X65023Y313945D01*
X67288Y313945D01*
X72645Y308588D01*
X72645Y306323D01*
X65023Y306323D01*
G37*
%LPD*%
%LPC*%
G36*
X585723Y433323D02*
X585723Y433323D01*
X585723Y440945D01*
X587988Y440945D01*
X593345Y435588D01*
X593345Y433323D01*
X585723Y433323D01*
G37*
%LPD*%
%LPC*%
G36*
X585723Y306323D02*
X585723Y306323D01*
X585723Y313945D01*
X587988Y313945D01*
X593345Y308588D01*
X593345Y306323D01*
X585723Y306323D01*
G37*
%LPD*%
%LPC*%
G36*
X585723Y192023D02*
X585723Y192023D01*
X585723Y199645D01*
X587988Y199645D01*
X593345Y194288D01*
X593345Y192023D01*
X585723Y192023D01*
G37*
%LPD*%
%LPC*%
G36*
X65023Y192023D02*
X65023Y192023D01*
X65023Y199645D01*
X67288Y199645D01*
X72645Y194288D01*
X72645Y192023D01*
X65023Y192023D01*
G37*
%LPD*%
%LPC*%
G36*
X54355Y433323D02*
X54355Y433323D01*
X54355Y435588D01*
X59712Y440945D01*
X61977Y440945D01*
X61977Y433323D01*
X54355Y433323D01*
G37*
%LPD*%
%LPC*%
G36*
X575055Y192023D02*
X575055Y192023D01*
X575055Y194288D01*
X580412Y199645D01*
X582677Y199645D01*
X582677Y192023D01*
X575055Y192023D01*
G37*
%LPD*%
%LPC*%
G36*
X54355Y192023D02*
X54355Y192023D01*
X54355Y194288D01*
X59712Y199645D01*
X61977Y199645D01*
X61977Y192023D01*
X54355Y192023D01*
G37*
%LPD*%
%LPC*%
G36*
X575055Y306323D02*
X575055Y306323D01*
X575055Y308588D01*
X580412Y313945D01*
X582677Y313945D01*
X582677Y306323D01*
X575055Y306323D01*
G37*
%LPD*%
%LPC*%
G36*
X54355Y306323D02*
X54355Y306323D01*
X54355Y308588D01*
X59712Y313945D01*
X61977Y313945D01*
X61977Y306323D01*
X54355Y306323D01*
G37*
%LPD*%
%LPC*%
G36*
X575055Y433323D02*
X575055Y433323D01*
X575055Y435588D01*
X580412Y440945D01*
X582677Y440945D01*
X582677Y433323D01*
X575055Y433323D01*
G37*
%LPD*%
%LPC*%
G36*
X585723Y422655D02*
X585723Y422655D01*
X585723Y430277D01*
X593345Y430277D01*
X593345Y428012D01*
X587988Y422655D01*
X585723Y422655D01*
G37*
%LPD*%
%LPC*%
G36*
X585723Y295655D02*
X585723Y295655D01*
X585723Y303277D01*
X593345Y303277D01*
X593345Y301012D01*
X587988Y295655D01*
X585723Y295655D01*
G37*
%LPD*%
%LPC*%
G36*
X585723Y181355D02*
X585723Y181355D01*
X585723Y188977D01*
X593345Y188977D01*
X593345Y186712D01*
X587988Y181355D01*
X585723Y181355D01*
G37*
%LPD*%
%LPC*%
G36*
X65023Y422655D02*
X65023Y422655D01*
X65023Y430277D01*
X72645Y430277D01*
X72645Y428012D01*
X67288Y422655D01*
X65023Y422655D01*
G37*
%LPD*%
%LPC*%
G36*
X65023Y181355D02*
X65023Y181355D01*
X65023Y188977D01*
X72645Y188977D01*
X72645Y186712D01*
X67288Y181355D01*
X65023Y181355D01*
G37*
%LPD*%
%LPC*%
G36*
X65023Y295655D02*
X65023Y295655D01*
X65023Y303277D01*
X72645Y303277D01*
X72645Y301012D01*
X67288Y295655D01*
X65023Y295655D01*
G37*
%LPD*%
%LPC*%
G36*
X580412Y295655D02*
X580412Y295655D01*
X575055Y301012D01*
X575055Y303277D01*
X582677Y303277D01*
X582677Y295655D01*
X580412Y295655D01*
G37*
%LPD*%
%LPC*%
G36*
X59712Y422655D02*
X59712Y422655D01*
X54355Y428012D01*
X54355Y430277D01*
X61977Y430277D01*
X61977Y422655D01*
X59712Y422655D01*
G37*
%LPD*%
%LPC*%
G36*
X59712Y181355D02*
X59712Y181355D01*
X54355Y186712D01*
X54355Y188977D01*
X61977Y188977D01*
X61977Y181355D01*
X59712Y181355D01*
G37*
%LPD*%
%LPC*%
G36*
X580412Y181355D02*
X580412Y181355D01*
X575055Y186712D01*
X575055Y188977D01*
X582677Y188977D01*
X582677Y181355D01*
X580412Y181355D01*
G37*
%LPD*%
%LPC*%
G36*
X59712Y295655D02*
X59712Y295655D01*
X54355Y301012D01*
X54355Y303277D01*
X61977Y303277D01*
X61977Y295655D01*
X59712Y295655D01*
G37*
%LPD*%
%LPC*%
G36*
X580412Y422655D02*
X580412Y422655D01*
X575055Y428012D01*
X575055Y430277D01*
X582677Y430277D01*
X582677Y422655D01*
X580412Y422655D01*
G37*
%LPD*%
%LPC*%
G36*
X183399Y457199D02*
X183399Y457199D01*
X183399Y457201D01*
X183401Y457201D01*
X183401Y457199D01*
X183399Y457199D01*
G37*
%LPD*%
%LPC*%
G36*
X584199Y190499D02*
X584199Y190499D01*
X584199Y190501D01*
X584201Y190501D01*
X584201Y190499D01*
X584199Y190499D01*
G37*
%LPD*%
%LPC*%
G36*
X584199Y431799D02*
X584199Y431799D01*
X584199Y431801D01*
X584201Y431801D01*
X584201Y431799D01*
X584199Y431799D01*
G37*
%LPD*%
%LPC*%
G36*
X183399Y546099D02*
X183399Y546099D01*
X183399Y546101D01*
X183401Y546101D01*
X183401Y546099D01*
X183399Y546099D01*
G37*
%LPD*%
%LPC*%
G36*
X482599Y546099D02*
X482599Y546099D01*
X482599Y546101D01*
X482601Y546101D01*
X482601Y546099D01*
X482599Y546099D01*
G37*
%LPD*%
%LPC*%
G36*
X584199Y304799D02*
X584199Y304799D01*
X584199Y304801D01*
X584201Y304801D01*
X584201Y304799D01*
X584199Y304799D01*
G37*
%LPD*%
%LPC*%
G36*
X63499Y304799D02*
X63499Y304799D01*
X63499Y304801D01*
X63501Y304801D01*
X63501Y304799D01*
X63499Y304799D01*
G37*
%LPD*%
%LPC*%
G36*
X450849Y25399D02*
X450849Y25399D01*
X450849Y25401D01*
X450851Y25401D01*
X450851Y25399D01*
X450849Y25399D01*
G37*
%LPD*%
%LPC*%
G36*
X63499Y431799D02*
X63499Y431799D01*
X63499Y431801D01*
X63501Y431801D01*
X63501Y431799D01*
X63499Y431799D01*
G37*
%LPD*%
%LPC*%
G36*
X63499Y190499D02*
X63499Y190499D01*
X63499Y190501D01*
X63501Y190501D01*
X63501Y190499D01*
X63499Y190499D01*
G37*
%LPD*%
D10*
X118500Y546100D03*
X135500Y546100D03*
X563000Y139700D03*
X580000Y139700D03*
X42300Y254000D03*
X59300Y254000D03*
D11*
X248400Y546100D03*
X183400Y546100D03*
X248400Y457200D03*
X183400Y457200D03*
D12*
X222250Y330200D03*
X222250Y304800D03*
X222250Y279400D03*
X222250Y254000D03*
X222250Y228600D03*
X222250Y203200D03*
X222250Y177800D03*
X222250Y152400D03*
X222250Y127000D03*
X222250Y101600D03*
X222250Y76200D03*
X222250Y50800D03*
X222250Y25400D03*
X450850Y330200D03*
X450850Y304800D03*
X450850Y279400D03*
X450850Y254000D03*
X450850Y228600D03*
X450850Y203200D03*
X450850Y177800D03*
X450850Y152400D03*
X450850Y127000D03*
X450850Y101600D03*
X450850Y76200D03*
X450850Y50800D03*
X450850Y25400D03*
D13*
X558800Y190500D03*
X584200Y190500D03*
X38100Y190500D03*
X63500Y190500D03*
X558800Y304800D03*
X584200Y304800D03*
X558800Y431800D03*
X584200Y431800D03*
X38100Y431800D03*
X63500Y431800D03*
X38100Y304800D03*
X63500Y304800D03*
D10*
X42300Y368300D03*
X59300Y368300D03*
X563000Y254000D03*
X580000Y254000D03*
X42300Y139700D03*
X59300Y139700D03*
X563000Y368300D03*
X580000Y368300D03*
X118500Y457200D03*
X135500Y457200D03*
D12*
X482600Y546100D03*
X482600Y520700D03*
X482600Y495300D03*
X482600Y469900D03*
X482600Y444500D03*
X152400Y152400D03*
X152400Y177800D03*
X152400Y203200D03*
X152400Y228600D03*
X152400Y254000D03*
X177800Y152400D03*
X177800Y177800D03*
X177800Y203200D03*
X177800Y228600D03*
X177800Y254000D03*
X177800Y279400D03*
X152400Y279400D03*
X488950Y184150D03*
X488950Y158750D03*
D14*
X118500Y546100D02*
X118500Y547100D01*
D15*
X140106Y568706D01*
X225794Y568706D01*
X248400Y546100D01*
X480060Y518160D02*
X482600Y520700D01*
X480060Y518160D02*
X162440Y518160D01*
X135500Y545100D01*
D14*
X135500Y546100D01*
D15*
X135500Y416950D02*
X222250Y330200D01*
X135500Y416950D02*
X135500Y457200D01*
X135500Y525150D02*
X135500Y546100D01*
X135500Y525150D02*
X97014Y486664D01*
X97014Y451293D01*
X114690Y433617D01*
X135500Y454427D01*
X135500Y457200D01*
X152400Y152400D02*
X152400Y149860D01*
X213026Y89234D01*
X438484Y89234D01*
X450850Y101600D01*
X42300Y139700D02*
X42300Y186300D01*
X38100Y190500D01*
X558800Y304800D02*
X563000Y300600D01*
X563000Y254000D01*
X563000Y427600D02*
X558800Y431800D01*
X563000Y427600D02*
X563000Y368300D01*
X563000Y186300D02*
X563000Y139700D01*
X563000Y186300D02*
X558800Y190500D01*
X222250Y50800D02*
X172600Y50800D01*
X83698Y139702D01*
X59300Y139700D01*
X450850Y177800D02*
X492886Y135764D01*
X580000Y241300D02*
X580000Y254000D01*
X580000Y241300D02*
X529200Y190500D01*
X529200Y172078D01*
X492886Y135764D01*
X438150Y317500D02*
X222250Y101600D01*
X438150Y317500D02*
X532740Y317500D01*
X580000Y364760D02*
X580000Y368300D01*
X580000Y364760D02*
X532740Y317500D01*
X479400Y50800D02*
X450850Y50800D01*
X479400Y50800D02*
X550520Y121920D01*
X580000Y121920D01*
X580000Y139700D01*
D14*
X118500Y457200D02*
X118500Y458200D01*
D15*
X140106Y479806D01*
X233414Y479806D01*
X248400Y464820D01*
X248400Y457200D01*
X42300Y427600D02*
X42300Y368300D01*
X42300Y427600D02*
X38100Y431800D01*
X42300Y300600D02*
X42300Y254000D01*
X42300Y300600D02*
X38100Y304800D01*
X200025Y250825D02*
X222250Y228600D01*
X200025Y250825D02*
X200025Y281231D01*
X112956Y368300D01*
X59300Y368300D01*
X192405Y207645D02*
X222250Y177800D01*
X192405Y207645D02*
X192405Y266700D01*
X72000Y266700D01*
X59300Y254000D01*
X177800Y254000D02*
X177800Y228600D01*
X177800Y203200D02*
X177800Y177800D01*
M02*
