G04 EAGLE Gerber RS-274X export*
G75*
%MOMM*%
%FSLAX34Y34*%
%LPD*%
%IN*%
%IPPOS*%
%AMOC8*
5,1,8,0,0,1.08239X$1,22.5*%
G01*
%ADD10C,0.254000*%


D10*
X0Y63500D02*
X242Y57966D01*
X965Y52473D01*
X2164Y47065D01*
X3830Y41782D01*
X5949Y36664D01*
X8507Y31750D01*
X11484Y27078D01*
X14856Y22683D01*
X18599Y18599D01*
X22683Y14856D01*
X27078Y11484D01*
X31750Y8507D01*
X36664Y5949D01*
X41782Y3830D01*
X47065Y2164D01*
X52473Y965D01*
X57966Y242D01*
X63500Y0D01*
X559001Y0D01*
X564500Y240D01*
X569958Y959D01*
X575332Y2150D01*
X580582Y3805D01*
X585668Y5912D01*
X590550Y8454D01*
X595193Y11411D01*
X599560Y14762D01*
X603619Y18481D01*
X607338Y22540D01*
X610689Y26907D01*
X613646Y31550D01*
X616188Y36432D01*
X618295Y41518D01*
X619950Y46768D01*
X621141Y52142D01*
X621860Y57600D01*
X622100Y63099D01*
X622100Y535495D01*
X621350Y539981D01*
X620211Y544386D01*
X618693Y548674D01*
X616807Y552813D01*
X614567Y556773D01*
X611991Y560522D01*
X609098Y564032D01*
X605910Y567277D01*
X602451Y570231D01*
X598748Y572873D01*
X594829Y575182D01*
X590723Y577141D01*
X586462Y578735D01*
X582079Y579951D01*
X577606Y580780D01*
X573078Y581216D01*
X568530Y581257D01*
X563995Y580900D01*
X58493Y580900D01*
X53924Y581255D01*
X49342Y581211D01*
X44781Y580767D01*
X40276Y579927D01*
X35861Y578698D01*
X31571Y577089D01*
X27437Y575112D01*
X23490Y572783D01*
X19762Y570118D01*
X16281Y567138D01*
X13072Y563867D01*
X10161Y560328D01*
X7569Y556549D01*
X5316Y552558D01*
X3420Y548386D01*
X1895Y544065D01*
X752Y539628D01*
X0Y535107D01*
X0Y63500D01*
X582920Y520160D02*
X582849Y519082D01*
X582708Y518011D01*
X582498Y516951D01*
X582218Y515908D01*
X581871Y514885D01*
X581457Y513887D01*
X580980Y512918D01*
X580439Y511982D01*
X579839Y511084D01*
X579182Y510227D01*
X578469Y509415D01*
X577705Y508651D01*
X576893Y507939D01*
X576036Y507281D01*
X575138Y506681D01*
X574202Y506141D01*
X573233Y505663D01*
X572235Y505249D01*
X571212Y504902D01*
X570169Y504622D01*
X569109Y504412D01*
X568038Y504271D01*
X566960Y504200D01*
X565880Y504200D01*
X564802Y504271D01*
X563731Y504412D01*
X562671Y504622D01*
X561628Y504902D01*
X560605Y505249D01*
X559607Y505663D01*
X558638Y506141D01*
X557702Y506681D01*
X556804Y507281D01*
X555947Y507939D01*
X555135Y508651D01*
X554371Y509415D01*
X553659Y510227D01*
X553001Y511084D01*
X552401Y511982D01*
X551861Y512918D01*
X551383Y513887D01*
X550969Y514885D01*
X550622Y515908D01*
X550342Y516951D01*
X550132Y518011D01*
X549991Y519082D01*
X549920Y520160D01*
X549920Y521240D01*
X549991Y522318D01*
X550132Y523389D01*
X550342Y524449D01*
X550622Y525492D01*
X550969Y526515D01*
X551383Y527513D01*
X551861Y528482D01*
X552401Y529418D01*
X553001Y530316D01*
X553659Y531173D01*
X554371Y531985D01*
X555135Y532749D01*
X555947Y533462D01*
X556804Y534119D01*
X557702Y534719D01*
X558638Y535260D01*
X559607Y535737D01*
X560605Y536151D01*
X561628Y536498D01*
X562671Y536778D01*
X563731Y536988D01*
X564802Y537129D01*
X565880Y537200D01*
X566960Y537200D01*
X568038Y537129D01*
X569109Y536988D01*
X570169Y536778D01*
X571212Y536498D01*
X572235Y536151D01*
X573233Y535737D01*
X574202Y535260D01*
X575138Y534719D01*
X576036Y534119D01*
X576893Y533462D01*
X577705Y532749D01*
X578469Y531985D01*
X579182Y531173D01*
X579839Y530316D01*
X580439Y529418D01*
X580980Y528482D01*
X581457Y527513D01*
X581871Y526515D01*
X582218Y525492D01*
X582498Y524449D01*
X582708Y523389D01*
X582849Y522318D01*
X582920Y521240D01*
X582920Y520160D01*
X72380Y520160D02*
X72309Y519082D01*
X72168Y518011D01*
X71958Y516951D01*
X71678Y515908D01*
X71331Y514885D01*
X70917Y513887D01*
X70440Y512918D01*
X69899Y511982D01*
X69299Y511084D01*
X68642Y510227D01*
X67929Y509415D01*
X67165Y508651D01*
X66353Y507939D01*
X65496Y507281D01*
X64598Y506681D01*
X63662Y506141D01*
X62693Y505663D01*
X61695Y505249D01*
X60672Y504902D01*
X59629Y504622D01*
X58569Y504412D01*
X57498Y504271D01*
X56420Y504200D01*
X55340Y504200D01*
X54262Y504271D01*
X53191Y504412D01*
X52131Y504622D01*
X51088Y504902D01*
X50065Y505249D01*
X49067Y505663D01*
X48098Y506141D01*
X47162Y506681D01*
X46264Y507281D01*
X45407Y507939D01*
X44595Y508651D01*
X43831Y509415D01*
X43119Y510227D01*
X42461Y511084D01*
X41861Y511982D01*
X41321Y512918D01*
X40843Y513887D01*
X40429Y514885D01*
X40082Y515908D01*
X39802Y516951D01*
X39592Y518011D01*
X39451Y519082D01*
X39380Y520160D01*
X39380Y521240D01*
X39451Y522318D01*
X39592Y523389D01*
X39802Y524449D01*
X40082Y525492D01*
X40429Y526515D01*
X40843Y527513D01*
X41321Y528482D01*
X41861Y529418D01*
X42461Y530316D01*
X43119Y531173D01*
X43831Y531985D01*
X44595Y532749D01*
X45407Y533462D01*
X46264Y534119D01*
X47162Y534719D01*
X48098Y535260D01*
X49067Y535737D01*
X50065Y536151D01*
X51088Y536498D01*
X52131Y536778D01*
X53191Y536988D01*
X54262Y537129D01*
X55340Y537200D01*
X56420Y537200D01*
X57498Y537129D01*
X58569Y536988D01*
X59629Y536778D01*
X60672Y536498D01*
X61695Y536151D01*
X62693Y535737D01*
X63662Y535260D01*
X64598Y534719D01*
X65496Y534119D01*
X66353Y533462D01*
X67165Y532749D01*
X67929Y531985D01*
X68642Y531173D01*
X69299Y530316D01*
X69899Y529418D01*
X70440Y528482D01*
X70917Y527513D01*
X71331Y526515D01*
X71678Y525492D01*
X71958Y524449D01*
X72168Y523389D01*
X72309Y522318D01*
X72380Y521240D01*
X72380Y520160D01*
X582920Y62960D02*
X582849Y61882D01*
X582708Y60811D01*
X582498Y59751D01*
X582218Y58708D01*
X581871Y57685D01*
X581457Y56687D01*
X580980Y55718D01*
X580439Y54782D01*
X579839Y53884D01*
X579182Y53027D01*
X578469Y52215D01*
X577705Y51451D01*
X576893Y50739D01*
X576036Y50081D01*
X575138Y49481D01*
X574202Y48941D01*
X573233Y48463D01*
X572235Y48049D01*
X571212Y47702D01*
X570169Y47422D01*
X569109Y47212D01*
X568038Y47071D01*
X566960Y47000D01*
X565880Y47000D01*
X564802Y47071D01*
X563731Y47212D01*
X562671Y47422D01*
X561628Y47702D01*
X560605Y48049D01*
X559607Y48463D01*
X558638Y48941D01*
X557702Y49481D01*
X556804Y50081D01*
X555947Y50739D01*
X555135Y51451D01*
X554371Y52215D01*
X553659Y53027D01*
X553001Y53884D01*
X552401Y54782D01*
X551861Y55718D01*
X551383Y56687D01*
X550969Y57685D01*
X550622Y58708D01*
X550342Y59751D01*
X550132Y60811D01*
X549991Y61882D01*
X549920Y62960D01*
X549920Y64040D01*
X549991Y65118D01*
X550132Y66189D01*
X550342Y67249D01*
X550622Y68292D01*
X550969Y69315D01*
X551383Y70313D01*
X551861Y71282D01*
X552401Y72218D01*
X553001Y73116D01*
X553659Y73973D01*
X554371Y74785D01*
X555135Y75549D01*
X555947Y76262D01*
X556804Y76919D01*
X557702Y77519D01*
X558638Y78060D01*
X559607Y78537D01*
X560605Y78951D01*
X561628Y79298D01*
X562671Y79578D01*
X563731Y79788D01*
X564802Y79929D01*
X565880Y80000D01*
X566960Y80000D01*
X568038Y79929D01*
X569109Y79788D01*
X570169Y79578D01*
X571212Y79298D01*
X572235Y78951D01*
X573233Y78537D01*
X574202Y78060D01*
X575138Y77519D01*
X576036Y76919D01*
X576893Y76262D01*
X577705Y75549D01*
X578469Y74785D01*
X579182Y73973D01*
X579839Y73116D01*
X580439Y72218D01*
X580980Y71282D01*
X581457Y70313D01*
X581871Y69315D01*
X582218Y68292D01*
X582498Y67249D01*
X582708Y66189D01*
X582849Y65118D01*
X582920Y64040D01*
X582920Y62960D01*
X72380Y62960D02*
X72309Y61882D01*
X72168Y60811D01*
X71958Y59751D01*
X71678Y58708D01*
X71331Y57685D01*
X70917Y56687D01*
X70440Y55718D01*
X69899Y54782D01*
X69299Y53884D01*
X68642Y53027D01*
X67929Y52215D01*
X67165Y51451D01*
X66353Y50739D01*
X65496Y50081D01*
X64598Y49481D01*
X63662Y48941D01*
X62693Y48463D01*
X61695Y48049D01*
X60672Y47702D01*
X59629Y47422D01*
X58569Y47212D01*
X57498Y47071D01*
X56420Y47000D01*
X55340Y47000D01*
X54262Y47071D01*
X53191Y47212D01*
X52131Y47422D01*
X51088Y47702D01*
X50065Y48049D01*
X49067Y48463D01*
X48098Y48941D01*
X47162Y49481D01*
X46264Y50081D01*
X45407Y50739D01*
X44595Y51451D01*
X43831Y52215D01*
X43119Y53027D01*
X42461Y53884D01*
X41861Y54782D01*
X41321Y55718D01*
X40843Y56687D01*
X40429Y57685D01*
X40082Y58708D01*
X39802Y59751D01*
X39592Y60811D01*
X39451Y61882D01*
X39380Y62960D01*
X39380Y64040D01*
X39451Y65118D01*
X39592Y66189D01*
X39802Y67249D01*
X40082Y68292D01*
X40429Y69315D01*
X40843Y70313D01*
X41321Y71282D01*
X41861Y72218D01*
X42461Y73116D01*
X43119Y73973D01*
X43831Y74785D01*
X44595Y75549D01*
X45407Y76262D01*
X46264Y76919D01*
X47162Y77519D01*
X48098Y78060D01*
X49067Y78537D01*
X50065Y78951D01*
X51088Y79298D01*
X52131Y79578D01*
X53191Y79788D01*
X54262Y79929D01*
X55340Y80000D01*
X56420Y80000D01*
X57498Y79929D01*
X58569Y79788D01*
X59629Y79578D01*
X60672Y79298D01*
X61695Y78951D01*
X62693Y78537D01*
X63662Y78060D01*
X64598Y77519D01*
X65496Y76919D01*
X66353Y76262D01*
X67165Y75549D01*
X67929Y74785D01*
X68642Y73973D01*
X69299Y73116D01*
X69899Y72218D01*
X70440Y71282D01*
X70917Y70313D01*
X71331Y69315D01*
X71678Y68292D01*
X71958Y67249D01*
X72168Y66189D01*
X72309Y65118D01*
X72380Y64040D01*
X72380Y62960D01*
M02*
