G04 EAGLE Gerber RS-274X export*
G75*
%MOMM*%
%FSLAX34Y34*%
%LPD*%
%INSilkscreen Bottom*%
%IPPOS*%
%AMOC8*
5,1,8,0,0,1.08239X$1,22.5*%
G01*
%ADD10C,0.127000*%


D10*
X223550Y406400D02*
X466250Y406400D01*
X466492Y406397D01*
X466733Y406388D01*
X466974Y406374D01*
X467215Y406353D01*
X467455Y406327D01*
X467695Y406295D01*
X467934Y406257D01*
X468171Y406214D01*
X468408Y406164D01*
X468643Y406109D01*
X468877Y406049D01*
X469109Y405982D01*
X469340Y405911D01*
X469569Y405833D01*
X469796Y405750D01*
X470021Y405662D01*
X470244Y405568D01*
X470464Y405469D01*
X470682Y405364D01*
X470897Y405255D01*
X471110Y405140D01*
X471320Y405020D01*
X471526Y404895D01*
X471730Y404765D01*
X471931Y404630D01*
X472128Y404490D01*
X472322Y404346D01*
X472512Y404197D01*
X472698Y404043D01*
X472881Y403885D01*
X473060Y403723D01*
X473235Y403556D01*
X473406Y403385D01*
X473573Y403210D01*
X473735Y403031D01*
X473893Y402848D01*
X474047Y402662D01*
X474196Y402472D01*
X474340Y402278D01*
X474480Y402081D01*
X474615Y401880D01*
X474745Y401676D01*
X474870Y401470D01*
X474990Y401260D01*
X475105Y401047D01*
X475214Y400832D01*
X475319Y400614D01*
X475418Y400394D01*
X475512Y400171D01*
X475600Y399946D01*
X475683Y399719D01*
X475761Y399490D01*
X475832Y399259D01*
X475899Y399027D01*
X475959Y398793D01*
X476014Y398558D01*
X476064Y398321D01*
X476107Y398084D01*
X476145Y397845D01*
X476177Y397605D01*
X476203Y397365D01*
X476224Y397124D01*
X476238Y396883D01*
X476247Y396642D01*
X476250Y396400D01*
X476250Y346400D01*
X476250Y-3600D01*
X476250Y-83600D01*
X393550Y-83600D01*
X303550Y-83600D01*
X220850Y-83600D01*
X200850Y-83600D01*
X200850Y346400D01*
X200850Y396400D01*
X201008Y396793D01*
X201176Y397183D01*
X201353Y397568D01*
X201539Y397948D01*
X201734Y398325D01*
X201939Y398696D01*
X202152Y399062D01*
X202374Y399423D01*
X202605Y399779D01*
X202845Y400128D01*
X203092Y400472D01*
X203348Y400810D01*
X203612Y401142D01*
X203884Y401467D01*
X204164Y401785D01*
X204451Y402097D01*
X204746Y402401D01*
X205048Y402699D01*
X205358Y402989D01*
X205674Y403271D01*
X205996Y403546D01*
X206326Y403812D01*
X206662Y404071D01*
X207003Y404322D01*
X207351Y404564D01*
X207705Y404798D01*
X208064Y405023D01*
X208429Y405239D01*
X208798Y405447D01*
X209173Y405645D01*
X209552Y405835D01*
X209935Y406015D01*
X210323Y406186D01*
X210715Y406347D01*
X211111Y406499D01*
X211510Y406641D01*
X211913Y406774D01*
X212318Y406897D01*
X212727Y407010D01*
X213138Y407113D01*
X213552Y407206D01*
X213967Y407290D01*
X214385Y407363D01*
X214804Y407426D01*
X215224Y407478D01*
X215646Y407521D01*
X216069Y407553D01*
X216492Y407576D01*
X216916Y407588D01*
X217340Y407589D01*
X217763Y407581D01*
X218187Y407562D01*
X218610Y407533D01*
X219032Y407494D01*
X219453Y407445D01*
X219872Y407385D01*
X220290Y407316D01*
X220707Y407236D01*
X221121Y407146D01*
X221533Y407046D01*
X221942Y406937D01*
X222349Y406817D01*
X222753Y406688D01*
X223153Y406549D01*
X223550Y406400D01*
X220850Y-33600D02*
X220850Y-83600D01*
X220850Y-33600D02*
X303550Y-33600D01*
X303550Y-83600D01*
X393550Y-83600D02*
X393550Y-3600D01*
X476250Y-3600D01*
X476250Y346400D02*
X200850Y346400D01*
M02*
