G04 EAGLE Gerber RS-274X export*
G75*
%MOMM*%
%FSLAX34Y34*%
%LPD*%
%INSoldermask Top*%
%IPPOS*%
%AMOC8*
5,1,8,0,0,1.08239X$1,22.5*%
G01*
%ADD10R,1.503200X1.703200*%
%ADD11C,2.743200*%
%ADD12C,1.711200*%
%ADD13C,3.503200*%
%ADD14P,1.649562X8X22.500000*%


D10*
X118500Y546100D03*
X135500Y546100D03*
X563000Y139700D03*
X580000Y139700D03*
X42300Y254000D03*
X59300Y254000D03*
D11*
X248400Y546100D03*
X183400Y546100D03*
X248400Y457200D03*
X183400Y457200D03*
D12*
X222250Y330200D03*
X222250Y304800D03*
X222250Y279400D03*
X222250Y254000D03*
X222250Y228600D03*
X222250Y203200D03*
X222250Y177800D03*
X222250Y152400D03*
X222250Y127000D03*
X222250Y101600D03*
X222250Y76200D03*
X222250Y50800D03*
X222250Y25400D03*
X450850Y330200D03*
X450850Y304800D03*
X450850Y279400D03*
X450850Y254000D03*
X450850Y228600D03*
X450850Y203200D03*
X450850Y177800D03*
X450850Y152400D03*
X450850Y127000D03*
X450850Y101600D03*
X450850Y76200D03*
X450850Y50800D03*
X450850Y25400D03*
D13*
X566420Y520700D03*
X55880Y520700D03*
X566420Y63500D03*
X55880Y63500D03*
D14*
X558800Y190500D03*
X584200Y190500D03*
X38100Y190500D03*
X63500Y190500D03*
X558800Y304800D03*
X584200Y304800D03*
X558800Y431800D03*
X584200Y431800D03*
X38100Y431800D03*
X63500Y431800D03*
X38100Y304800D03*
X63500Y304800D03*
D10*
X42300Y368300D03*
X59300Y368300D03*
X563000Y254000D03*
X580000Y254000D03*
X42300Y139700D03*
X59300Y139700D03*
X563000Y368300D03*
X580000Y368300D03*
X118500Y457200D03*
X135500Y457200D03*
D12*
X482600Y546100D03*
X482600Y520700D03*
X482600Y495300D03*
X482600Y469900D03*
X482600Y444500D03*
X152400Y152400D03*
X152400Y177800D03*
X152400Y203200D03*
X152400Y228600D03*
X152400Y254000D03*
X177800Y152400D03*
X177800Y177800D03*
X177800Y203200D03*
X177800Y228600D03*
X177800Y254000D03*
X177800Y279400D03*
X152400Y279400D03*
X488950Y184150D03*
X488950Y158750D03*
M02*
